<svg xmlns="http://www.w3.org/2000/svg" xmlns:xlink="http://www.w3.org/1999/xlink" width="100" zoomAndPan="magnify" viewBox="0 0 75 142.499996" height="190" preserveAspectRatio="xMidYMid meet" version="1.0"><defs><clipPath id="f84fbffe15"><path d="M 0.132812 0 L 74.867188 0 L 74.867188 142 L 0.132812 142 Z M 0.132812 0 " clip-rule="nonzero"/></clipPath><clipPath id="7be82c4de9"><path d="M 0.132812 18 L 25 18 L 25 59 L 0.132812 59 Z M 0.132812 18 " clip-rule="nonzero"/></clipPath><clipPath id="405716a014"><path d="M 35.726562 32.675781 L 24.234375 58.644531 L -11.304688 42.921875 L 0.183594 16.949219 Z M 35.726562 32.675781 " clip-rule="nonzero"/></clipPath><clipPath id="91bae9e706"><path d="M 35.726562 32.675781 L 24.234375 58.644531 L -11.304688 42.921875 L 0.183594 16.949219 Z M 35.726562 32.675781 " clip-rule="nonzero"/></clipPath><clipPath id="39b5d92b1f"><path d="M 30 61 L 74.867188 61 L 74.867188 84 L 30 84 Z M 30 61 " clip-rule="nonzero"/></clipPath><clipPath id="242148ced3"><path d="M 47.925781 44.429688 L 80.164062 76.667969 L 61.136719 95.691406 L 28.902344 63.457031 Z M 47.925781 44.429688 " clip-rule="nonzero"/></clipPath><clipPath id="bd2971a500"><path d="M 47.925781 44.429688 L 80.164062 76.667969 L 61.136719 95.691406 L 28.902344 63.457031 Z M 47.925781 44.429688 " clip-rule="nonzero"/></clipPath></defs><g clip-path="url(#f84fbffe15)"><path fill="#ffffff" d="M 0.132812 0 L 74.867188 0 L 74.867188 142 L 0.132812 142 Z M 0.132812 0 " fill-opacity="1" fill-rule="nonzero"/><path fill="#f3edd8" d="M 0.132812 0 L 74.867188 0 L 74.867188 142 L 0.132812 142 Z M 0.132812 0 " fill-opacity="1" fill-rule="nonzero"/></g><g clip-path="url(#7be82c4de9)"><g clip-path="url(#405716a014)"><g clip-path="url(#91bae9e706)"><path fill="#dfd8be" d="M -1.59375 20.742188 C -0.941406 19.269531 0.800781 18.3125 2.535156 18.527344 C 4.214844 18.730469 5.769531 19.925781 6.589844 21.640625 C 7.46875 23.472656 7.375 25.46875 7.140625 26.820312 C 7.050781 27.34375 6.921875 27.882812 6.800781 28.40625 C 6.402344 30.136719 5.988281 31.921875 6.734375 33.472656 C 6.875 33.765625 7.050781 34.035156 7.261719 34.28125 C 7.472656 34.527344 7.714844 34.742188 7.980469 34.925781 C 8.25 35.105469 8.539062 35.253906 8.84375 35.359375 C 9.148438 35.46875 9.464844 35.535156 9.789062 35.558594 C 10.113281 35.585938 10.433594 35.566406 10.753906 35.507812 C 11.074219 35.449219 11.378906 35.347656 11.671875 35.207031 C 11.964844 35.070312 12.234375 34.894531 12.480469 34.683594 C 12.730469 34.472656 12.945312 34.230469 13.128906 33.964844 C 13.417969 33.542969 13.65625 33.0625 13.886719 32.597656 C 14.238281 31.890625 14.601562 31.160156 15.164062 30.585938 C 15.820312 29.921875 16.347656 29.777344 16.839844 29.902344 C 17.125 29.164062 17.617188 28.414062 18.207031 28.292969 C 18.773438 28.175781 19.292969 28.574219 19.539062 28.996094 C 19.800781 29.445312 19.859375 29.980469 19.910156 30.449219 C 19.980469 31.085938 19.832031 31.488281 19.484375 31.617188 C 19.15625 31.738281 18.828125 31.535156 18.550781 31.324219 C 18.375 31.1875 18.210938 31.054688 18.054688 30.925781 C 17.648438 30.59375 17.308594 30.316406 16.972656 30.175781 C 16.878906 30.4375 16.820312 30.707031 16.792969 30.980469 C 16.695312 32.277344 17.617188 33.960938 18.179688 34.847656 C 18.320312 35.074219 18.476562 35.300781 18.628906 35.519531 C 18.925781 35.933594 19.195312 36.363281 19.433594 36.8125 C 19.722656 37.398438 20.011719 38.277344 19.726562 39.136719 C 19.320312 40.367188 17.960938 40.953125 16.824219 41.328125 C 13.871094 42.300781 12.769531 44.035156 13.355469 46.789062 C 13.480469 47.378906 13.75 47.886719 14.171875 48.320312 C 14.589844 48.75 15.09375 49.039062 15.679688 49.175781 C 16.265625 49.316406 16.84375 49.292969 17.414062 49.097656 C 17.984375 48.90625 18.457031 48.574219 18.835938 48.105469 C 19.132812 47.738281 19.355469 47.296875 19.566406 46.867188 C 19.886719 46.226562 20.214844 45.5625 20.808594 45.132812 C 21.296875 44.78125 21.925781 44.644531 22.585938 44.75 C 23.328125 44.863281 23.925781 45.222656 24.375 45.828125 C 25.121094 46.859375 25.117188 48.40625 24.375 49.59375 C 23.769531 50.554688 22.832031 51.015625 21.925781 51.457031 C 21.089844 51.867188 20.230469 52.289062 19.644531 53.105469 C 19.152344 53.800781 18.996094 54.5625 19.183594 55.394531 C 19.328125 56.007812 19.773438 56.6875 20.449219 56.824219 C 20.789062 56.894531 21.132812 56.824219 21.5 56.753906 C 21.769531 56.6875 22.042969 56.652344 22.316406 56.644531 C 23.292969 56.652344 24.195312 57.441406 24.324219 58.410156 L 24.109375 58.4375 C 23.992188 57.574219 23.1875 56.867188 22.316406 56.863281 C 22.054688 56.871094 21.796875 56.90625 21.542969 56.964844 C 21.171875 57.039062 20.789062 57.117188 20.402344 57.039062 C 19.582031 56.867188 19.121094 56.074219 18.972656 55.445312 C 18.769531 54.546875 18.9375 53.726562 19.46875 52.976562 C 20.085938 52.117188 20.972656 51.683594 21.828125 51.261719 C 22.75 50.8125 23.617188 50.386719 24.1875 49.476562 C 24.890625 48.363281 24.890625 46.917969 24.199219 45.953125 C 23.78125 45.402344 23.234375 45.074219 22.550781 44.964844 C 21.949219 44.871094 21.375 44.992188 20.9375 45.308594 C 20.386719 45.707031 20.082031 46.320312 19.761719 46.964844 C 19.542969 47.402344 19.316406 47.859375 19.007812 48.242188 C 18.601562 48.742188 18.09375 49.097656 17.484375 49.304688 C 16.875 49.511719 16.253906 49.539062 15.628906 49.390625 C 15.003906 49.238281 14.464844 48.933594 14.015625 48.472656 C 13.566406 48.011719 13.273438 47.464844 13.140625 46.835938 C 12.539062 43.988281 13.71875 42.121094 16.757812 41.121094 C 17.847656 40.761719 19.144531 40.207031 19.519531 39.070312 C 19.722656 38.453125 19.621094 37.6875 19.238281 36.910156 C 19.003906 36.46875 18.742188 36.046875 18.449219 35.644531 C 18.296875 35.421875 18.140625 35.195312 17.996094 34.964844 C 17.421875 34.054688 16.472656 32.320312 16.574219 30.964844 C 16.605469 30.671875 16.667969 30.382812 16.765625 30.105469 C 16.335938 30.003906 15.894531 30.152344 15.320312 30.738281 C 14.78125 31.289062 14.425781 32.003906 14.082031 32.695312 C 13.847656 33.164062 13.609375 33.652344 13.308594 34.089844 C 13.210938 34.230469 13.105469 34.363281 12.992188 34.492188 C 12.875 34.617188 12.753906 34.738281 12.625 34.847656 C 12.492188 34.960938 12.355469 35.0625 12.210938 35.15625 C 12.070312 35.246094 11.921875 35.332031 11.765625 35.40625 C 11.609375 35.480469 11.453125 35.542969 11.289062 35.59375 C 11.128906 35.648438 10.960938 35.691406 10.792969 35.722656 C 10.625 35.753906 10.457031 35.773438 10.285156 35.78125 C 10.113281 35.792969 9.941406 35.789062 9.773438 35.777344 C 9.601562 35.761719 9.433594 35.738281 9.265625 35.703125 C 9.097656 35.667969 8.933594 35.621094 8.773438 35.566406 C 8.609375 35.507812 8.453125 35.441406 8.300781 35.363281 C 8.148438 35.285156 8 35.199219 7.859375 35.105469 C 7.71875 35.007812 7.582031 34.902344 7.457031 34.789062 C 7.328125 34.671875 7.207031 34.550781 7.097656 34.421875 C 6.984375 34.292969 6.882812 34.15625 6.789062 34.011719 C 6.695312 33.867188 6.613281 33.71875 6.539062 33.566406 C 5.757812 31.945312 6.179688 30.121094 6.589844 28.359375 C 6.710938 27.839844 6.835938 27.300781 6.925781 26.78125 C 7.152344 25.460938 7.246094 23.515625 6.394531 21.734375 C 5.605469 20.085938 4.113281 18.9375 2.507812 18.742188 C 0.746094 18.527344 -1.019531 19.578125 -1.507812 21.136719 L -1.714844 21.070312 C -1.679688 20.957031 -1.640625 20.847656 -1.59375 20.742188 Z M 19.636719 31.1875 C 19.722656 30.988281 19.71875 30.710938 19.695312 30.476562 C 19.644531 30.023438 19.585938 29.515625 19.347656 29.105469 C 19.144531 28.75 18.710938 28.410156 18.253906 28.503906 C 17.742188 28.609375 17.304688 29.296875 17.042969 29.972656 C 17.421875 30.128906 17.789062 30.429688 18.191406 30.757812 C 18.347656 30.882812 18.511719 31.015625 18.683594 31.152344 C 18.914062 31.328125 19.179688 31.496094 19.410156 31.410156 C 19.519531 31.371094 19.59375 31.292969 19.636719 31.1875 Z M 19.636719 31.1875 " fill-opacity="1" fill-rule="nonzero"/></g></g></g><g clip-path="url(#39b5d92b1f)"><g clip-path="url(#242148ced3)"><g clip-path="url(#bd2971a500)"><path fill="#dfd8be" d="M 42.257812 76.480469 C 42.054688 76.28125 41.875 76.0625 41.714844 75.832031 C 40.632812 74.246094 40.410156 72.277344 40.277344 70.394531 L 40.25 70.054688 C 40.128906 68.3125 40.003906 66.507812 39.21875 64.957031 C 37.71875 61.992188 33.636719 60.617188 30.652344 62.074219 L 30.546875 61.859375 C 32.03125 61.132812 33.863281 61.046875 35.570312 61.621094 C 37.277344 62.199219 38.6875 63.371094 39.433594 64.847656 C 40.238281 66.441406 40.367188 68.269531 40.492188 70.039062 L 40.515625 70.378906 C 40.648438 72.226562 40.867188 74.160156 41.914062 75.695312 C 42.898438 77.136719 44.984375 78.160156 46.632812 77.304688 C 47.148438 77.035156 47.554688 76.628906 47.988281 76.199219 C 48.335938 75.847656 48.699219 75.488281 49.121094 75.210938 C 50.339844 74.410156 52.070312 74.394531 53.421875 75.167969 C 54.089844 75.558594 54.636719 76.078125 55.058594 76.726562 C 55.5625 76.5625 56.078125 76.5 56.605469 76.53125 C 57.34375 76.589844 58.023438 76.828125 58.640625 77.242188 C 59.257812 77.65625 59.730469 78.191406 60.066406 78.855469 C 60.292969 79.320312 60.433594 79.824219 60.570312 80.308594 C 60.710938 80.8125 60.855469 81.335938 61.097656 81.796875 C 61.757812 83.066406 63.199219 83.863281 64.597656 83.738281 C 66.015625 83.609375 67.289062 82.527344 67.621094 81.167969 C 67.992188 79.644531 67.292969 78.222656 66.550781 76.722656 C 66.082031 75.769531 65.597656 74.785156 65.398438 73.757812 C 65.089844 72.175781 65.78125 70.277344 67.304688 69.976562 C 68.410156 69.757812 69.464844 70.460938 70.363281 71.132812 L 75.28125 74.824219 C 76.796875 75.964844 78.417969 76.957031 79.996094 76.5 L 80.0625 76.730469 C 78.382812 77.214844 76.703125 76.195312 75.136719 75.019531 L 70.21875 71.328125 C 69.320312 70.652344 68.363281 70.011719 67.351562 70.210938 C 65.96875 70.484375 65.347656 72.242188 65.632812 73.710938 C 65.828125 74.707031 66.304688 75.675781 66.765625 76.613281 C 67.496094 78.089844 68.246094 79.617188 67.855469 81.222656 C 67.496094 82.683594 66.136719 83.839844 64.617188 83.976562 C 63.125 84.109375 61.589844 83.261719 60.882812 81.910156 C 60.628906 81.421875 60.480469 80.890625 60.339844 80.375 C 60.207031 79.898438 60.070312 79.40625 59.851562 78.960938 C 59.535156 78.335938 59.085938 77.828125 58.507812 77.441406 C 57.925781 77.050781 57.285156 76.828125 56.585938 76.773438 C 56.113281 76.742188 55.648438 76.796875 55.191406 76.933594 C 55.53125 77.503906 55.765625 78.113281 55.894531 78.765625 C 56.058594 79.605469 56 80.332031 55.722656 80.917969 C 55.375 81.652344 54.640625 82.128906 53.933594 82.078125 C 53.183594 82.027344 52.492188 81.371094 52.324219 80.554688 C 52.183594 79.863281 52.378906 79.0625 52.855469 78.359375 C 53.351562 77.636719 54.007812 77.121094 54.824219 76.808594 C 54.425781 76.214844 53.921875 75.738281 53.304688 75.378906 C 52.027344 74.644531 50.398438 74.660156 49.25 75.414062 C 48.851562 75.675781 48.5 76.027344 48.15625 76.367188 C 47.730469 76.792969 47.292969 77.230469 46.746094 77.515625 C 45.242188 78.296875 43.410156 77.632812 42.257812 76.480469 Z M 54.957031 77.015625 C 54.167969 77.304688 53.53125 77.796875 53.054688 78.492188 C 52.613281 79.144531 52.433594 79.878906 52.558594 80.503906 C 52.707031 81.21875 53.304688 81.792969 53.949219 81.839844 C 54.558594 81.878906 55.199219 81.460938 55.503906 80.816406 C 55.761719 80.277344 55.8125 79.601562 55.65625 78.8125 C 55.53125 78.171875 55.300781 77.570312 54.957031 77.015625 Z M 54.957031 77.015625 " fill-opacity="1" fill-rule="nonzero"/></g></g></g></svg>