<svg xmlns="http://www.w3.org/2000/svg" xmlns:xlink="http://www.w3.org/1999/xlink" width="180" zoomAndPan="magnify" viewBox="0 0 135 74.999997" height="100" preserveAspectRatio="xMidYMid meet" version="1.0"><defs><clipPath id="6af7aac218"><path d="M 55 33 L 135 33 L 135 75 L 55 75 Z M 55 33 " clip-rule="nonzero"/></clipPath><clipPath id="4cc3e9698d"><path d="M 48.246094 40.261719 L 134.230469 22.742188 L 142.015625 60.957031 L 56.035156 78.476562 Z M 48.246094 40.261719 " clip-rule="nonzero"/></clipPath><clipPath id="a1331de583"><path d="M 48.246094 40.261719 L 134.230469 22.742188 L 142.015625 60.957031 L 56.035156 78.476562 Z M 48.246094 40.261719 " clip-rule="nonzero"/></clipPath></defs><rect x="-13.5" width="162" fill="#ffffff" y="-7.5" height="89.999996" fill-opacity="1"/><rect x="-13.5" width="162" fill="#f3edd8" y="-7.5" height="89.999996" fill-opacity="1"/><g clip-path="url(#6af7aac218)"><g clip-path="url(#4cc3e9698d)"><g clip-path="url(#a1331de583)"><path fill="#dfd8be" d="M 63.105469 76.21875 C 60.601562 76.734375 58.09375 76.75 55.582031 76.265625 L 55.644531 75.957031 C 61.515625 77.113281 67.882812 75.296875 72.257812 71.21875 C 73.304688 70.242188 74.984375 68.304688 74.464844 66.269531 C 74.046875 64.625 72.4375 63.679688 70.875 62.769531 C 70.660156 62.644531 70.445312 62.519531 70.234375 62.390625 C 68.308594 61.230469 66.722656 59.226562 67.515625 57.371094 C 68.121094 55.957031 69.792969 55.445312 71.15625 55.4375 C 71.816406 55.449219 72.472656 55.5 73.125 55.597656 C 73.84375 55.6875 74.589844 55.78125 75.320312 55.75 C 78.1875 55.613281 82.210938 51.382812 82.378906 48.320312 C 82.449219 47.054688 81.851562 46.148438 80.632812 45.648438 C 80.722656 46.25 80.707031 46.835938 80.527344 47.359375 C 80.265625 48.109375 79.683594 48.636719 78.800781 48.933594 C 78.285156 49.105469 77.699219 48.960938 77.234375 48.542969 C 76.707031 48.074219 76.449219 47.371094 76.582031 46.753906 C 76.851562 45.476562 78.261719 44.8125 79.410156 44.992188 C 79.683594 45.035156 79.949219 45.09375 80.214844 45.171875 C 79.84375 43.667969 78.921875 42.148438 78.546875 41.570312 C 77.539062 40.019531 76.847656 38.828125 77.121094 37.59375 C 77.328125 36.683594 78.082031 35.832031 79.425781 34.996094 C 82.023438 33.390625 85.480469 32.953125 88.90625 33.800781 C 90.777344 34.265625 92.871094 35.523438 95.085938 36.851562 C 97.449219 38.273438 99.890625 39.738281 102.230469 40.335938 C 104.847656 41.003906 106.945312 40.441406 108.648438 38.613281 C 108.910156 38.316406 109.160156 38.007812 109.390625 37.683594 C 109.644531 37.324219 109.921875 36.980469 110.222656 36.65625 C 112.332031 34.472656 115.722656 34.722656 117.984375 35.597656 C 119.777344 36.292969 121.375 37.410156 122.925781 38.488281 C 123.574219 38.945312 124.246094 39.414062 124.921875 39.84375 C 127.765625 41.652344 130.210938 42.316406 132.398438 41.871094 C 132.414062 41.867188 132.433594 41.863281 132.453125 41.859375 C 133.898438 41.554688 135.238281 40.527344 135.949219 39.183594 C 136.496094 38.140625 136.582031 37.042969 136.191406 36.085938 L 136.480469 35.96875 C 136.910156 37.011719 136.820312 38.207031 136.226562 39.328125 C 135.472656 40.753906 134.054688 41.84375 132.519531 42.167969 C 132.5 42.171875 132.480469 42.175781 132.460938 42.179688 C 130.191406 42.644531 127.671875 41.964844 124.753906 40.109375 C 124.074219 39.675781 123.398438 39.203125 122.742188 38.75 C 121.210938 37.679688 119.628906 36.574219 117.871094 35.894531 C 115.527344 34.984375 112.320312 34.9375 110.449219 36.875 C 110.15625 37.1875 109.890625 37.519531 109.644531 37.871094 C 109.40625 38.203125 109.152344 38.523438 108.878906 38.828125 C 107.839844 39.945312 106.710938 40.554688 105.527344 40.792969 C 102.171875 41.476562 98.378906 39.199219 94.921875 37.125 C 92.726562 35.804688 90.65625 34.558594 88.832031 34.109375 C 85.484375 33.28125 82.117188 33.703125 79.59375 35.265625 C 78.320312 36.054688 77.613281 36.835938 77.429688 37.664062 C 77.183594 38.777344 77.847656 39.914062 78.8125 41.398438 C 79.316406 42.175781 80.242188 43.746094 80.570312 45.285156 C 82.027344 45.820312 82.773438 46.878906 82.695312 48.339844 C 82.613281 49.851562 81.636719 51.726562 80.082031 53.355469 C 78.53125 54.984375 76.757812 55.996094 75.335938 56.0625 C 74.578125 56.097656 73.820312 56.003906 73.085938 55.910156 C 72.445312 55.816406 71.804688 55.761719 71.160156 55.753906 C 69.953125 55.757812 68.351562 56.21875 67.804688 57.492188 C 67.085938 59.179688 68.589844 61.03125 70.398438 62.121094 C 70.605469 62.246094 70.820312 62.371094 71.035156 62.5 C 72.652344 63.441406 74.320312 64.417969 74.773438 66.195312 C 75.328125 68.386719 73.570312 70.425781 72.476562 71.449219 C 69.875 73.871094 66.582031 75.507812 63.105469 76.21875 Z M 78.558594 45.324219 C 77.746094 45.492188 77.046875 46.074219 76.890625 46.816406 C 76.78125 47.328125 77 47.914062 77.445312 48.308594 C 77.828125 48.652344 78.285156 48.773438 78.703125 48.632812 C 79.488281 48.371094 80 47.90625 80.230469 47.253906 C 80.410156 46.738281 80.40625 46.136719 80.289062 45.519531 C 79.988281 45.425781 79.675781 45.351562 79.363281 45.304688 C 79.09375 45.261719 78.824219 45.269531 78.558594 45.324219 Z M 78.558594 45.324219 " fill-opacity="1" fill-rule="nonzero"/></g></g></g></svg>