<svg xmlns="http://www.w3.org/2000/svg" xmlns:xlink="http://www.w3.org/1999/xlink" width="100" zoomAndPan="magnify" viewBox="0 0 75 142.499996" height="190" preserveAspectRatio="xMidYMid meet" version="1.0"><defs><clipPath id="3cdc578ce1"><path d="M 0.132812 0 L 74.867188 0 L 74.867188 142 L 0.132812 142 Z M 0.132812 0 " clip-rule="nonzero"/></clipPath><clipPath id="98fb807899"><path d="M 0.132812 18 L 27 18 L 27 61 L 0.132812 61 Z M 0.132812 18 " clip-rule="nonzero"/></clipPath><clipPath id="5afdf320d6"><path d="M 37.292969 33.371094 L 25.199219 60.707031 L -11.710938 44.378906 L 0.386719 17.039062 Z M 37.292969 33.371094 " clip-rule="nonzero"/></clipPath><clipPath id="1795cd0dd1"><path d="M 37.292969 33.371094 L 25.199219 60.707031 L -11.710938 44.378906 L 0.386719 17.039062 Z M 37.292969 33.371094 " clip-rule="nonzero"/></clipPath><clipPath id="976031058c"><path d="M 25 59 L 74.867188 59 L 74.867188 89 L 25 89 Z M 25 59 " clip-rule="nonzero"/></clipPath><clipPath id="0385aa8805"><path d="M 47.121094 103.964844 L 23.917969 60.4375 L 55.574219 43.5625 L 78.78125 87.089844 Z M 47.121094 103.964844 " clip-rule="nonzero"/></clipPath><clipPath id="ff041bf070"><path d="M 23.960938 60.519531 L 47.167969 104.046875 L 78.824219 87.171875 L 55.617188 43.644531 Z M 23.960938 60.519531 " clip-rule="nonzero"/></clipPath></defs><g clip-path="url(#3cdc578ce1)"><path fill="#ffffff" d="M 0.132812 0 L 74.867188 0 L 74.867188 142 L 0.132812 142 Z M 0.132812 0 " fill-opacity="1" fill-rule="nonzero"/><path fill="#f3edd8" d="M 0.132812 0 L 74.867188 0 L 74.867188 142 L 0.132812 142 Z M 0.132812 0 " fill-opacity="1" fill-rule="nonzero"/></g><g clip-path="url(#98fb807899)"><g clip-path="url(#5afdf320d6)"><g clip-path="url(#1795cd0dd1)"><path fill="#dfd8be" d="M -1.667969 20.910156 C -0.988281 19.375 0.832031 18.375 2.640625 18.597656 C 4.394531 18.8125 6.019531 20.058594 6.875 21.847656 C 7.792969 23.761719 7.695312 25.84375 7.449219 27.253906 C 7.355469 27.804688 7.222656 28.367188 7.097656 28.914062 C 6.679688 30.71875 6.246094 32.582031 7.027344 34.203125 C 7.097656 34.351562 7.183594 34.5 7.273438 34.640625 C 7.367188 34.78125 7.46875 34.917969 7.578125 35.046875 C 7.6875 35.171875 7.804688 35.292969 7.933594 35.40625 C 8.058594 35.519531 8.191406 35.621094 8.328125 35.71875 C 8.46875 35.8125 8.613281 35.898438 8.765625 35.976562 C 8.914062 36.050781 9.070312 36.117188 9.230469 36.171875 C 9.386719 36.230469 9.550781 36.273438 9.714844 36.308594 C 9.878906 36.34375 10.046875 36.367188 10.214844 36.382812 C 10.382812 36.394531 10.550781 36.394531 10.722656 36.386719 C 10.890625 36.378906 11.058594 36.359375 11.222656 36.328125 C 11.386719 36.296875 11.550781 36.253906 11.710938 36.203125 C 11.871094 36.148438 12.027344 36.085938 12.179688 36.015625 C 12.332031 35.941406 12.480469 35.859375 12.621094 35.769531 C 12.765625 35.675781 12.898438 35.574219 13.027344 35.464844 C 13.15625 35.355469 13.277344 35.238281 13.390625 35.113281 C 13.503906 34.988281 13.605469 34.855469 13.703125 34.714844 C 14.007812 34.273438 14.253906 33.773438 14.496094 33.289062 C 14.859375 32.550781 15.238281 31.789062 15.828125 31.1875 C 16.511719 30.492188 17.0625 30.34375 17.578125 30.476562 C 17.875 29.707031 18.386719 28.921875 19.007812 28.792969 C 19.597656 28.671875 20.140625 29.089844 20.394531 29.527344 C 20.667969 29.996094 20.726562 30.554688 20.78125 31.046875 C 20.855469 31.710938 20.703125 32.128906 20.339844 32.265625 C 19.996094 32.390625 19.652344 32.179688 19.363281 31.957031 C 19.179688 31.816406 19.007812 31.675781 18.84375 31.542969 C 18.421875 31.195312 18.066406 30.90625 17.714844 30.757812 C 17.617188 31.03125 17.554688 31.3125 17.527344 31.601562 C 17.425781 32.953125 18.390625 34.710938 18.976562 35.640625 C 19.125 35.875 19.289062 36.113281 19.445312 36.339844 C 19.757812 36.769531 20.035156 37.21875 20.28125 37.6875 C 20.585938 38.300781 20.886719 39.21875 20.589844 40.117188 C 20.167969 41.398438 18.75 42.015625 17.5625 42.40625 C 14.480469 43.417969 13.328125 45.230469 13.9375 48.105469 C 14.066406 48.71875 14.351562 49.253906 14.792969 49.703125 C 15.230469 50.152344 15.753906 50.453125 16.367188 50.597656 C 16.976562 50.746094 17.582031 50.71875 18.175781 50.515625 C 18.769531 50.3125 19.265625 49.96875 19.660156 49.480469 C 19.972656 49.097656 20.203125 48.636719 20.425781 48.1875 C 20.757812 47.519531 21.101562 46.824219 21.722656 46.378906 C 22.230469 46.007812 22.886719 45.867188 23.574219 45.976562 C 24.351562 46.097656 24.976562 46.46875 25.445312 47.101562 C 26.222656 48.179688 26.21875 49.792969 25.441406 51.03125 C 24.808594 52.035156 23.832031 52.515625 22.886719 52.980469 C 22.015625 53.40625 21.117188 53.847656 20.503906 54.699219 C 19.988281 55.425781 19.828125 56.222656 20.027344 57.089844 C 20.171875 57.726562 20.640625 58.4375 21.34375 58.582031 C 21.699219 58.65625 22.058594 58.582031 22.441406 58.507812 C 22.722656 58.441406 23.007812 58.402344 23.296875 58.394531 C 24.3125 58.402344 25.253906 59.226562 25.390625 60.234375 L 25.167969 60.265625 C 25.042969 59.367188 24.203125 58.628906 23.292969 58.621094 C 23.019531 58.632812 22.753906 58.667969 22.484375 58.730469 C 22.097656 58.808594 21.699219 58.886719 21.296875 58.804688 C 20.4375 58.628906 19.957031 57.796875 19.804688 57.140625 C 19.59375 56.207031 19.765625 55.347656 20.320312 54.566406 C 20.964844 53.667969 21.890625 53.214844 22.785156 52.777344 C 23.746094 52.304688 24.652344 51.859375 25.25 50.910156 C 25.980469 49.75 25.984375 48.238281 25.261719 47.234375 C 24.824219 46.65625 24.25 46.3125 23.539062 46.203125 C 22.910156 46.101562 22.3125 46.230469 21.855469 46.5625 C 21.28125 46.976562 20.964844 47.613281 20.628906 48.289062 C 20.398438 48.746094 20.164062 49.222656 19.839844 49.621094 C 19.414062 50.144531 18.886719 50.515625 18.25 50.730469 C 17.613281 50.949219 16.96875 50.976562 16.3125 50.820312 C 15.660156 50.664062 15.097656 50.34375 14.628906 49.863281 C 14.160156 49.378906 13.855469 48.808594 13.714844 48.152344 C 13.085938 45.183594 14.320312 43.230469 17.492188 42.1875 C 18.628906 41.816406 19.984375 41.230469 20.375 40.046875 C 20.585938 39.402344 20.480469 38.601562 20.078125 37.789062 C 19.835938 37.332031 19.5625 36.890625 19.257812 36.46875 C 19.097656 36.238281 18.933594 36 18.78125 35.761719 C 18.183594 34.808594 17.191406 33 17.300781 31.585938 C 17.332031 31.277344 17.398438 30.980469 17.5 30.6875 C 17.050781 30.578125 16.589844 30.738281 15.992188 31.347656 C 15.425781 31.921875 15.054688 32.667969 14.699219 33.390625 C 14.453125 33.882812 14.203125 34.390625 13.890625 34.84375 C 13.789062 34.992188 13.675781 35.132812 13.558594 35.265625 C 13.4375 35.398438 13.3125 35.523438 13.175781 35.636719 C 13.039062 35.753906 12.894531 35.859375 12.746094 35.957031 C 12.597656 36.054688 12.441406 36.144531 12.28125 36.21875 C 12.117188 36.296875 11.953125 36.363281 11.78125 36.417969 C 11.613281 36.472656 11.441406 36.519531 11.265625 36.550781 C 11.089844 36.582031 10.910156 36.605469 10.734375 36.613281 C 10.554688 36.625 10.375 36.621094 10.199219 36.609375 C 10.019531 36.59375 9.84375 36.570312 9.667969 36.53125 C 9.492188 36.496094 9.320312 36.445312 9.152344 36.386719 C 8.984375 36.328125 8.820312 36.257812 8.660156 36.175781 C 8.503906 36.097656 8.347656 36.007812 8.199219 35.90625 C 8.054688 35.804688 7.914062 35.695312 7.78125 35.574219 C 7.648438 35.457031 7.523438 35.328125 7.40625 35.191406 C 7.289062 35.058594 7.183594 34.914062 7.085938 34.765625 C 6.988281 34.617188 6.898438 34.460938 6.820312 34.300781 C 6.007812 32.609375 6.449219 30.703125 6.875 28.863281 C 7.003906 28.320312 7.132812 27.757812 7.226562 27.21875 C 7.464844 25.839844 7.5625 23.808594 6.671875 21.949219 C 5.847656 20.226562 4.292969 19.027344 2.613281 18.824219 C 0.777344 18.597656 -1.066406 19.695312 -1.578125 21.320312 L -1.796875 21.253906 C -1.757812 21.136719 -1.714844 21.023438 -1.667969 20.910156 Z M 20.496094 31.816406 C 20.585938 31.609375 20.582031 31.320312 20.554688 31.074219 C 20.503906 30.601562 20.445312 30.070312 20.195312 29.640625 C 19.980469 29.269531 19.53125 28.917969 19.050781 29.015625 C 18.519531 29.125 18.0625 29.84375 17.789062 30.550781 C 18.1875 30.710938 18.570312 31.023438 18.988281 31.367188 C 19.152344 31.5 19.320312 31.640625 19.5 31.777344 C 19.742188 31.964844 20.019531 32.140625 20.261719 32.050781 C 20.371094 32.007812 20.449219 31.929688 20.496094 31.816406 Z M 20.496094 31.816406 " fill-opacity="1" fill-rule="nonzero"/></g></g></g><g clip-path="url(#976031058c)"><g clip-path="url(#0385aa8805)"><g clip-path="url(#ff041bf070)"><path fill="#dfd8be" d="M 69.199219 69.707031 C 68.757812 68.882812 67.929688 68.273438 67.027344 68.203125 C 66.34375 68.160156 65.746094 68.367188 65.234375 68.820312 C 64.753906 69.242188 64.46875 69.789062 64.433594 70.367188 C 64.421875 70.625 64.4375 70.878906 64.476562 71.132812 C 64.5 71.320312 64.515625 71.507812 64.523438 71.699219 C 64.527344 72.167969 64.414062 72.605469 64.183594 73.015625 C 63.949219 73.421875 63.632812 73.746094 63.226562 73.980469 C 62.820312 74.21875 62.382812 74.335938 61.914062 74.335938 C 61.445312 74.335938 61.007812 74.21875 60.601562 73.984375 C 59.878906 73.5625 59.320312 72.785156 58.902344 71.601562 C 58.789062 71.289062 58.691406 70.964844 58.59375 70.652344 C 58.394531 69.996094 58.1875 69.320312 57.859375 68.703125 C 57.28125 67.625 56.378906 66.933594 55.433594 66.855469 C 54.230469 66.757812 53.839844 67.539062 53.460938 68.292969 C 53.28125 68.648438 53.097656 69.015625 52.824219 69.292969 C 52.257812 69.878906 51.398438 70.394531 50.574219 70.246094 L 50.574219 70.242188 C 50.792969 69.335938 50.554688 68.375 50.3125 67.550781 C 50.128906 66.925781 49.917969 66.273438 49.5 65.753906 C 49.015625 65.152344 48.261719 64.863281 47.621094 65.03125 C 47.074219 65.175781 46.703125 65.625 46.601562 66.261719 C 46.582031 66.390625 46.5625 66.511719 46.546875 66.628906 C 46.378906 67.742188 46.28125 68.414062 45.234375 69.304688 C 44.585938 69.859375 43.46875 70.34375 42.46875 69.898438 C 41.707031 69.554688 41.257812 68.785156 40.824219 68.039062 C 40.699219 67.828125 40.574219 67.609375 40.441406 67.40625 C 39.691406 66.234375 38.671875 65.445312 37.570312 65.179688 C 36.269531 64.863281 34.875 65.378906 34.261719 66.40625 C 34.0625 66.734375 33.945312 67.101562 33.828125 67.460938 C 33.675781 67.9375 33.53125 68.390625 33.21875 68.742188 C 32.621094 69.40625 31.621094 69.460938 30.890625 69.214844 C 30.015625 68.925781 29.332031 68.25 28.835938 67.699219 C 27.859375 66.609375 27.078125 65.394531 26.492188 64.054688 C 25.90625 62.714844 25.542969 61.320312 25.402344 59.863281 L 25.183594 59.882812 C 25.324219 61.363281 25.695312 62.785156 26.289062 64.144531 C 26.886719 65.503906 27.679688 66.738281 28.671875 67.847656 C 29.1875 68.417969 29.898438 69.117188 30.820312 69.425781 C 31.621094 69.691406 32.71875 69.628906 33.382812 68.886719 C 33.726562 68.5 33.886719 68.007812 34.039062 67.527344 C 34.152344 67.183594 34.265625 66.824219 34.449219 66.519531 C 35.015625 65.574219 36.308594 65.097656 37.519531 65.390625 C 38.5625 65.644531 39.535156 66.402344 40.257812 67.527344 C 40.386719 67.726562 40.511719 67.941406 40.632812 68.148438 C 41.085938 68.925781 41.550781 69.726562 42.378906 70.097656 C 43.28125 70.503906 44.457031 70.257812 45.378906 69.472656 C 46.484375 68.527344 46.597656 67.785156 46.765625 66.664062 C 46.78125 66.546875 46.800781 66.425781 46.820312 66.296875 C 46.90625 65.742188 47.210938 65.367188 47.675781 65.246094 C 48.234375 65.097656 48.898438 65.355469 49.328125 65.890625 C 49.71875 66.378906 49.925781 67.007812 50.101562 67.613281 C 50.347656 68.449219 50.566406 69.335938 50.359375 70.1875 C 50.359375 70.1875 50.359375 70.191406 50.359375 70.191406 C 50.324219 70.179688 50.292969 70.167969 50.261719 70.15625 C 50.03125 70.054688 49.820312 69.925781 49.617188 69.777344 C 49.28125 69.542969 48.929688 69.300781 48.5 69.285156 C 48.160156 69.28125 47.871094 69.40625 47.636719 69.65625 C 47.378906 69.917969 47.253906 70.234375 47.269531 70.605469 C 47.308594 71.257812 47.894531 71.839844 48.574219 71.902344 C 49.46875 71.984375 50.222656 71.261719 50.507812 70.457031 C 51.425781 70.632812 52.367188 70.078125 52.984375 69.449219 C 53.277344 69.148438 53.46875 68.761719 53.65625 68.390625 C 54.035156 67.640625 54.363281 66.988281 55.417969 67.078125 C 56.285156 67.148438 57.125 67.792969 57.664062 68.804688 L 57.664062 68.808594 C 57.984375 69.40625 58.1875 70.070312 58.382812 70.714844 C 58.480469 71.03125 58.582031 71.359375 58.691406 71.675781 C 59.132812 72.910156 59.71875 73.726562 60.492188 74.171875 C 60.929688 74.429688 61.40625 74.558594 61.914062 74.558594 C 62.421875 74.554688 62.898438 74.429688 63.335938 74.171875 C 63.777344 73.914062 64.121094 73.566406 64.375 73.125 C 64.625 72.679688 64.75 72.203125 64.742188 71.695312 C 64.738281 71.5 64.722656 71.300781 64.695312 71.105469 C 64.660156 70.867188 64.644531 70.625 64.652344 70.382812 C 64.683594 69.863281 64.941406 69.367188 65.378906 68.988281 C 65.84375 68.574219 66.390625 68.382812 67.011719 68.421875 C 68.121094 68.511719 69.121094 69.492188 69.28125 70.65625 C 69.4375 71.765625 68.878906 72.960938 67.886719 73.636719 C 67.601562 73.824219 67.304688 73.988281 66.996094 74.132812 C 66.421875 74.417969 65.832031 74.710938 65.445312 75.238281 C 64.664062 76.308594 65.109375 77.835938 65.992188 78.691406 C 66.886719 79.5625 68.128906 79.929688 69.339844 80.195312 C 69.496094 80.230469 69.652344 80.261719 69.808594 80.296875 C 70.832031 80.511719 71.886719 80.734375 72.78125 81.265625 C 73.855469 81.902344 74.734375 83.023438 75.257812 84.417969 C 75.777344 85.804688 75.90625 87.3125 75.960938 88.46875 L 76.183594 88.457031 C 76.125 87.285156 75.992188 85.753906 75.464844 84.34375 C 74.921875 82.898438 74.011719 81.738281 72.894531 81.078125 C 71.96875 80.527344 70.894531 80.300781 69.855469 80.078125 C 69.699219 80.046875 69.542969 80.011719 69.386719 79.980469 C 68.207031 79.722656 67 79.367188 66.144531 78.535156 C 65.347656 77.757812 64.921875 76.328125 65.625 75.367188 C 65.976562 74.882812 66.519531 74.617188 67.09375 74.332031 C 67.410156 74.179688 67.71875 74.011719 68.011719 73.820312 C 69.070312 73.097656 69.667969 71.816406 69.5 70.625 C 69.453125 70.300781 69.351562 69.996094 69.199219 69.707031 Z M 47.613281 71.023438 C 47.5 70.824219 47.464844 70.609375 47.496094 70.386719 C 47.53125 70.160156 47.632812 69.96875 47.796875 69.808594 C 47.984375 69.605469 48.21875 69.503906 48.492188 69.507812 C 48.855469 69.519531 49.167969 69.734375 49.492188 69.957031 C 49.707031 70.117188 49.933594 70.253906 50.179688 70.359375 C 50.214844 70.375 50.253906 70.390625 50.292969 70.402344 C 50.035156 71.105469 49.363281 71.753906 48.59375 71.683594 C 48.152344 71.632812 47.824219 71.414062 47.613281 71.023438 Z M 47.613281 71.023438 " fill-opacity="1" fill-rule="nonzero"/></g></g></g></svg>