<svg xmlns="http://www.w3.org/2000/svg" xmlns:xlink="http://www.w3.org/1999/xlink" width="100" zoomAndPan="magnify" viewBox="0 0 75 142.499996" height="190" preserveAspectRatio="xMidYMid meet" version="1.0"><defs><filter x="0%" y="0%" width="100%" height="100%" id="a9db4156a4"><feColorMatrix values="0 0 0 0 1 0 0 0 0 1 0 0 0 0 1 0 0 0 1 0" color-interpolation-filters="sRGB"/></filter><clipPath id="fdaf4a13b4"><path d="M 0.132812 0 L 74.867188 0 L 74.867188 142 L 0.132812 142 Z M 0.132812 0 " clip-rule="nonzero"/></clipPath><clipPath id="f657ded40b"><path d="M 0.132812 9 L 74.867188 9 L 74.867188 120 L 0.132812 120 Z M 0.132812 9 " clip-rule="nonzero"/></clipPath><mask id="39c753a554"><g filter="url(#a9db4156a4)"><rect x="-7.5" width="90" fill="#000000" y="-14.25" height="170.999995" fill-opacity="0.5"/></g></mask><clipPath id="e2d00602f2"><path d="M 0.132812 2 L 29 2 L 29 56 L 0.132812 56 Z M 0.132812 2 " clip-rule="nonzero"/></clipPath><clipPath id="26d17c03cd"><path d="M 42.570312 21.445312 L 27.324219 55.90625 L -19.515625 35.183594 L -4.269531 0.722656 Z M 42.570312 21.445312 " clip-rule="nonzero"/></clipPath><clipPath id="5195947224"><path d="M 42.570312 21.445312 L 27.324219 55.90625 L -19.515625 35.183594 L -4.269531 0.722656 Z M 42.570312 21.445312 " clip-rule="nonzero"/></clipPath><clipPath id="e040080c53"><path d="M 27 55 L 74.867188 55 L 74.867188 92 L 27 92 Z M 27 55 " clip-rule="nonzero"/></clipPath><clipPath id="32136a3828"><path d="M 54.917969 110.714844 L 25.757812 56.011719 L 65.390625 34.882812 L 94.550781 89.585938 Z M 54.917969 110.714844 " clip-rule="nonzero"/></clipPath><clipPath id="f391238b1e"><path d="M 25.761719 56.023438 L 54.921875 110.722656 L 94.554688 89.59375 L 65.394531 34.894531 Z M 25.761719 56.023438 " clip-rule="nonzero"/></clipPath><clipPath id="f8914efe5c"><rect x="0" width="75" y="0" height="111"/></clipPath><clipPath id="7556038a54"><path d="M 0.132812 51 L 74.867188 51 L 74.867188 142 L 0.132812 142 Z M 0.132812 51 " clip-rule="nonzero"/></clipPath><mask id="5fd1d6f8b8"><g filter="url(#a9db4156a4)"><rect x="-7.5" width="90" fill="#000000" y="-14.25" height="170.999995" fill-opacity="0.5"/></g></mask><clipPath id="ae2a0d5ea1"><path d="M 0.132812 71 L 14 71 L 14 91 L 0.132812 91 Z M 0.132812 71 " clip-rule="nonzero"/></clipPath><clipPath id="b5cb5b922d"><path d="M -8.753906 55.710938 L 13.921875 85.808594 L -26.992188 116.628906 L -49.664062 86.527344 Z M -8.753906 55.710938 " clip-rule="nonzero"/></clipPath><clipPath id="35292fd4dc"><path d="M -8.753906 55.710938 L 13.921875 85.808594 L -26.992188 116.628906 L -49.664062 86.527344 Z M -8.753906 55.710938 " clip-rule="nonzero"/></clipPath><clipPath id="cb491fd972"><path d="M 13 43 L 74.867188 43 L 74.867188 87 L 13 87 Z M 13 43 " clip-rule="nonzero"/></clipPath><clipPath id="f294d7e0b7"><path d="M 75.226562 88.398438 L 13.25 87.230469 L 14.097656 42.324219 L 76.074219 43.492188 Z M 75.226562 88.398438 " clip-rule="nonzero"/></clipPath><clipPath id="5c8e13435d"><path d="M 13.257812 87.230469 L 75.234375 88.398438 L 76.082031 43.492188 L 14.105469 42.324219 Z M 13.257812 87.230469 " clip-rule="nonzero"/></clipPath><clipPath id="ea668aaa7a"><rect x="0" width="75" y="0" height="91"/></clipPath></defs><g clip-path="url(#fdaf4a13b4)"><path fill="#ffffff" d="M 0.132812 0 L 74.867188 0 L 74.867188 142 L 0.132812 142 Z M 0.132812 0 " fill-opacity="1" fill-rule="nonzero"/><path fill="#f3edd8" d="M 0.132812 0 L 74.867188 0 L 74.867188 142 L 0.132812 142 Z M 0.132812 0 " fill-opacity="1" fill-rule="nonzero"/></g><g clip-path="url(#f657ded40b)"><g mask="url(#39c753a554)"><g transform="matrix(1, 0, 0, 1, 0, 9)"><g clip-path="url(#f8914efe5c)"><g clip-path="url(#e2d00602f2)"><g clip-path="url(#26d17c03cd)"><g clip-path="url(#5195947224)"><path fill="#a5be6a" d="M -6.472656 5.761719 C -5.617188 3.828125 -3.328125 2.570312 -1.046875 2.851562 C 1.160156 3.121094 3.199219 4.691406 4.28125 6.945312 C 5.433594 9.355469 5.3125 11.976562 5.003906 13.75 C 4.882812 14.441406 4.71875 15.152344 4.558594 15.839844 C 4.035156 18.109375 3.488281 20.457031 4.46875 22.492188 C 4.5625 22.683594 4.667969 22.871094 4.78125 23.046875 C 4.898438 23.226562 5.027344 23.394531 5.164062 23.554688 C 5.304688 23.71875 5.453125 23.867188 5.609375 24.011719 C 5.769531 24.152344 5.933594 24.28125 6.109375 24.402344 C 6.285156 24.523438 6.46875 24.628906 6.65625 24.726562 C 6.847656 24.824219 7.042969 24.90625 7.242188 24.976562 C 7.445312 25.046875 7.648438 25.105469 7.855469 25.148438 C 8.0625 25.191406 8.273438 25.222656 8.484375 25.238281 C 8.695312 25.253906 8.910156 25.257812 9.121094 25.246094 C 9.332031 25.234375 9.542969 25.210938 9.753906 25.171875 C 9.960938 25.132812 10.167969 25.078125 10.371094 25.011719 C 10.570312 24.945312 10.769531 24.867188 10.960938 24.777344 C 11.152344 24.683594 11.335938 24.582031 11.515625 24.464844 C 11.691406 24.351562 11.863281 24.222656 12.023438 24.085938 C 12.1875 23.949219 12.339844 23.800781 12.480469 23.640625 C 12.621094 23.484375 12.753906 23.316406 12.875 23.140625 C 13.257812 22.585938 13.570312 21.957031 13.871094 21.34375 C 14.332031 20.417969 14.808594 19.457031 15.550781 18.703125 C 16.410156 17.828125 17.101562 17.636719 17.753906 17.804688 C 18.128906 16.835938 18.773438 15.847656 19.550781 15.6875 C 20.292969 15.535156 20.976562 16.058594 21.296875 16.609375 C 21.640625 17.203125 21.71875 17.90625 21.785156 18.523438 C 21.878906 19.355469 21.6875 19.886719 21.230469 20.054688 C 20.796875 20.214844 20.363281 19.949219 20 19.671875 C 19.769531 19.492188 19.554688 19.316406 19.347656 19.148438 C 18.816406 18.710938 18.367188 18.347656 17.925781 18.160156 C 17.804688 18.503906 17.726562 18.859375 17.6875 19.222656 C 17.558594 20.921875 18.777344 23.136719 19.511719 24.304688 C 19.699219 24.601562 19.90625 24.898438 20.101562 25.1875 C 20.496094 25.726562 20.847656 26.292969 21.160156 26.882812 C 21.539062 27.65625 21.917969 28.8125 21.546875 29.941406 C 21.011719 31.554688 19.226562 32.328125 17.734375 32.820312 C 13.851562 34.097656 12.402344 36.378906 13.171875 39.996094 C 13.335938 40.769531 13.691406 41.441406 14.246094 42.007812 C 14.796875 42.574219 15.457031 42.949219 16.226562 43.136719 C 16.996094 43.320312 17.757812 43.285156 18.507812 43.03125 C 19.253906 42.777344 19.878906 42.34375 20.375 41.726562 C 20.765625 41.246094 21.054688 40.664062 21.335938 40.101562 C 21.753906 39.257812 22.1875 38.386719 22.96875 37.820312 C 23.609375 37.359375 24.4375 37.179688 25.304688 37.320312 C 26.28125 37.46875 27.066406 37.9375 27.65625 38.734375 C 28.632812 40.089844 28.632812 42.125 27.652344 43.679688 C 26.859375 44.945312 25.625 45.550781 24.433594 46.132812 C 23.339844 46.671875 22.207031 47.226562 21.4375 48.296875 C 21.128906 48.734375 20.921875 49.214844 20.816406 49.738281 C 20.710938 50.261719 20.71875 50.785156 20.835938 51.308594 C 21.019531 52.109375 21.605469 53.003906 22.492188 53.1875 C 22.941406 53.277344 23.394531 53.1875 23.875 53.089844 C 24.230469 53.007812 24.589844 52.960938 24.953125 52.949219 C 26.234375 52.957031 27.417969 53.996094 27.589844 55.265625 L 27.308594 55.304688 C 27.152344 54.171875 26.09375 53.242188 24.949219 53.234375 C 24.605469 53.246094 24.265625 53.292969 23.933594 53.371094 C 23.445312 53.46875 22.941406 53.570312 22.4375 53.464844 C 21.355469 53.242188 20.746094 52.199219 20.554688 51.371094 C 20.429688 50.808594 20.421875 50.246094 20.535156 49.683594 C 20.648438 49.117188 20.871094 48.597656 21.207031 48.128906 C 22.015625 47 23.183594 46.429688 24.308594 45.875 C 25.515625 45.285156 26.660156 44.722656 27.410156 43.527344 C 28.332031 42.066406 28.335938 40.164062 27.421875 38.898438 C 26.875 38.175781 26.15625 37.742188 25.257812 37.601562 C 24.46875 37.472656 23.714844 37.632812 23.136719 38.054688 C 22.414062 38.578125 22.015625 39.378906 21.59375 40.226562 C 21.304688 40.804688 21.007812 41.402344 20.597656 41.90625 C 20.339844 42.230469 20.039062 42.507812 19.699219 42.746094 C 19.355469 42.984375 18.992188 43.167969 18.597656 43.300781 C 18.207031 43.4375 17.800781 43.511719 17.386719 43.53125 C 16.972656 43.550781 16.5625 43.511719 16.160156 43.414062 C 15.757812 43.316406 15.375 43.167969 15.015625 42.960938 C 14.65625 42.757812 14.328125 42.503906 14.039062 42.207031 C 13.75 41.910156 13.507812 41.578125 13.3125 41.214844 C 13.117188 40.847656 12.976562 40.460938 12.890625 40.054688 C 12.097656 36.316406 13.652344 33.863281 17.644531 32.546875 C 19.074219 32.078125 20.785156 31.34375 21.273438 29.851562 C 21.542969 29.042969 21.410156 28.03125 20.902344 27.011719 C 20.597656 26.433594 20.253906 25.878906 19.867188 25.347656 C 19.667969 25.058594 19.460938 24.757812 19.269531 24.457031 C 18.515625 23.257812 17.269531 20.980469 17.402344 19.199219 C 17.441406 18.8125 17.527344 18.4375 17.65625 18.070312 C 17.089844 17.933594 16.511719 18.132812 15.753906 18.902344 C 15.042969 19.625 14.578125 20.5625 14.128906 21.472656 C 13.820312 22.089844 13.503906 22.730469 13.109375 23.304688 C 12.984375 23.488281 12.84375 23.664062 12.691406 23.832031 C 12.542969 24 12.382812 24.15625 12.210938 24.304688 C 12.039062 24.449219 11.859375 24.582031 11.671875 24.707031 C 11.480469 24.828125 11.285156 24.9375 11.082031 25.035156 C 10.878906 25.132812 10.671875 25.214844 10.457031 25.285156 C 10.242188 25.355469 10.027344 25.410156 9.804688 25.453125 C 9.585938 25.492188 9.363281 25.519531 9.136719 25.53125 C 8.910156 25.542969 8.6875 25.539062 8.464844 25.523438 C 8.238281 25.507812 8.015625 25.472656 7.796875 25.425781 C 7.578125 25.382812 7.359375 25.320312 7.148438 25.246094 C 6.9375 25.171875 6.730469 25.082031 6.527344 24.980469 C 6.328125 24.878906 6.136719 24.765625 5.949219 24.640625 C 5.761719 24.511719 5.585938 24.375 5.417969 24.222656 C 5.25 24.074219 5.09375 23.914062 4.949219 23.742188 C 4.800781 23.570312 4.667969 23.390625 4.542969 23.203125 C 4.421875 23.015625 4.308594 22.820312 4.210938 22.617188 C 3.1875 20.488281 3.742188 18.09375 4.28125 15.773438 C 4.441406 15.089844 4.605469 14.382812 4.722656 13.703125 C 5.023438 11.96875 5.144531 9.410156 4.023438 7.066406 C 2.984375 4.902344 1.027344 3.394531 -1.082031 3.136719 C -3.398438 2.851562 -5.71875 4.234375 -6.363281 6.28125 L -6.636719 6.195312 C -6.589844 6.046875 -6.535156 5.902344 -6.472656 5.761719 Z M 21.425781 19.488281 C 21.539062 19.230469 21.535156 18.867188 21.503906 18.554688 C 21.4375 17.964844 21.363281 17.292969 21.050781 16.753906 C 20.78125 16.289062 20.214844 15.84375 19.609375 15.96875 C 18.9375 16.105469 18.363281 17.007812 18.019531 17.894531 C 18.519531 18.101562 19 18.496094 19.527344 18.925781 C 19.734375 19.09375 19.949219 19.269531 20.175781 19.445312 C 20.476562 19.675781 20.828125 19.898438 21.128906 19.785156 C 21.273438 19.730469 21.371094 19.632812 21.425781 19.488281 Z M 21.425781 19.488281 " fill-opacity="1" fill-rule="nonzero"/></g></g></g><g clip-path="url(#e040080c53)"><g clip-path="url(#32136a3828)"><g clip-path="url(#f391238b1e)"><path fill="#a5be6a" d="M 82.710938 67.585938 C 82.160156 66.546875 81.113281 65.78125 79.980469 65.691406 C 79.121094 65.636719 78.367188 65.898438 77.722656 66.46875 C 77.113281 66.996094 76.753906 67.6875 76.710938 68.417969 C 76.699219 68.738281 76.71875 69.0625 76.765625 69.378906 C 76.796875 69.617188 76.816406 69.851562 76.824219 70.089844 C 76.832031 70.683594 76.6875 71.234375 76.398438 71.75 C 76.105469 72.261719 75.703125 72.667969 75.195312 72.964844 C 74.683594 73.265625 74.132812 73.414062 73.542969 73.414062 C 72.949219 73.414062 72.398438 73.265625 71.890625 72.96875 C 70.976562 72.4375 70.277344 71.457031 69.746094 69.96875 C 69.609375 69.574219 69.484375 69.167969 69.363281 68.773438 C 69.109375 67.949219 68.847656 67.097656 68.433594 66.320312 C 67.710938 64.964844 66.570312 64.09375 65.382812 63.996094 C 63.871094 63.871094 63.375 64.855469 62.898438 65.804688 C 62.671875 66.253906 62.4375 66.71875 62.097656 67.066406 C 61.382812 67.800781 60.300781 68.449219 59.261719 68.261719 L 59.265625 68.257812 C 59.542969 67.117188 59.238281 65.910156 58.933594 64.867188 C 58.707031 64.082031 58.4375 63.261719 57.910156 62.605469 C 57.304688 61.851562 56.351562 61.484375 55.546875 61.699219 C 54.859375 61.882812 54.390625 62.449219 54.265625 63.25 C 54.238281 63.410156 54.214844 63.5625 54.195312 63.710938 C 53.984375 65.113281 53.859375 65.957031 52.542969 67.078125 C 51.722656 67.773438 50.320312 68.390625 49.058594 67.824219 C 48.101562 67.394531 47.535156 66.421875 46.988281 65.484375 C 46.835938 65.21875 46.675781 64.945312 46.507812 64.6875 C 45.5625 63.214844 44.277344 62.21875 42.894531 61.882812 C 41.253906 61.484375 39.5 62.136719 38.726562 63.429688 C 38.476562 63.839844 38.328125 64.304688 38.183594 64.757812 C 37.988281 65.355469 37.808594 65.925781 37.410156 66.367188 C 36.664062 67.207031 35.402344 67.273438 34.484375 66.96875 C 33.382812 66.597656 32.519531 65.753906 31.894531 65.054688 C 30.667969 63.683594 29.683594 62.15625 28.945312 60.46875 C 28.207031 58.785156 27.75 57.023438 27.574219 55.191406 L 27.296875 55.21875 C 27.476562 57.082031 27.941406 58.867188 28.691406 60.582031 C 29.441406 62.292969 30.441406 63.847656 31.6875 65.242188 C 32.335938 65.964844 33.230469 66.839844 34.394531 67.230469 C 35.398438 67.566406 36.785156 67.484375 37.617188 66.554688 C 38.054688 66.066406 38.253906 65.445312 38.449219 64.839844 C 38.585938 64.40625 38.734375 63.957031 38.964844 63.570312 C 39.679688 62.378906 41.304688 61.785156 42.828125 62.152344 C 44.140625 62.472656 45.367188 63.425781 46.277344 64.839844 C 46.4375 65.089844 46.597656 65.359375 46.746094 65.621094 C 47.316406 66.601562 47.90625 67.613281 48.945312 68.078125 C 50.082031 68.585938 51.5625 68.277344 52.722656 67.289062 C 54.117188 66.101562 54.257812 65.167969 54.46875 63.753906 C 54.488281 63.605469 54.511719 63.453125 54.539062 63.292969 C 54.648438 62.59375 55.03125 62.125 55.617188 61.96875 C 56.320312 61.78125 57.15625 62.109375 57.695312 62.78125 C 58.1875 63.394531 58.449219 64.1875 58.667969 64.945312 C 58.976562 66 59.253906 67.117188 58.996094 68.191406 C 58.992188 68.191406 58.992188 68.195312 58.992188 68.195312 C 58.953125 68.183594 58.910156 68.167969 58.867188 68.148438 C 58.582031 68.019531 58.3125 67.863281 58.0625 67.671875 C 57.632812 67.378906 57.191406 67.074219 56.65625 67.054688 C 56.222656 67.050781 55.863281 67.207031 55.566406 67.519531 C 55.238281 67.851562 55.085938 68.25 55.101562 68.714844 C 55.152344 69.535156 55.890625 70.269531 56.746094 70.347656 C 57.875 70.453125 58.824219 69.542969 59.183594 68.53125 C 60.335938 68.753906 61.519531 68.054688 62.296875 67.257812 C 62.667969 66.878906 62.910156 66.398438 63.144531 65.929688 C 63.621094 64.984375 64.03125 64.164062 65.363281 64.273438 C 66.453125 64.363281 67.511719 65.175781 68.1875 66.449219 L 68.191406 66.453125 C 68.589844 67.207031 68.847656 68.042969 69.097656 68.855469 C 69.21875 69.25 69.34375 69.664062 69.484375 70.0625 C 70.039062 71.617188 70.78125 72.644531 71.75 73.207031 C 72.304688 73.53125 72.902344 73.691406 73.542969 73.691406 C 74.183594 73.691406 74.78125 73.527344 75.332031 73.207031 C 75.886719 72.882812 76.320312 72.441406 76.636719 71.886719 C 76.953125 71.328125 77.109375 70.730469 77.101562 70.089844 C 77.09375 69.839844 77.074219 69.59375 77.042969 69.347656 C 76.996094 69.042969 76.980469 68.738281 76.988281 68.433594 C 77.027344 67.78125 77.351562 67.15625 77.902344 66.679688 C 78.488281 66.15625 79.175781 65.921875 79.957031 65.96875 C 81.355469 66.078125 82.613281 67.316406 82.816406 68.78125 C 83.015625 70.175781 82.308594 71.683594 81.0625 72.535156 C 80.703125 72.765625 80.328125 72.976562 79.9375 73.15625 C 79.21875 73.515625 78.472656 73.882812 77.988281 74.546875 C 77.003906 75.894531 77.5625 77.816406 78.671875 78.898438 C 79.800781 79.996094 81.367188 80.453125 82.890625 80.789062 C 83.085938 80.832031 83.28125 80.875 83.480469 80.914062 C 84.765625 81.1875 86.097656 81.46875 87.226562 82.136719 C 88.574219 82.9375 89.683594 84.347656 90.339844 86.109375 C 90.992188 87.851562 91.15625 89.75 91.226562 91.207031 L 91.503906 91.191406 C 91.433594 89.714844 91.265625 87.789062 90.601562 86.011719 C 89.917969 84.191406 88.769531 82.734375 87.367188 81.898438 C 86.199219 81.207031 84.847656 80.921875 83.539062 80.644531 C 83.339844 80.601562 83.144531 80.558594 82.949219 80.515625 C 81.464844 80.191406 79.945312 79.746094 78.867188 78.699219 C 77.863281 77.722656 77.328125 75.921875 78.210938 74.710938 C 78.65625 74.101562 79.339844 73.765625 80.058594 73.40625 C 80.460938 73.21875 80.847656 73.003906 81.21875 72.761719 C 82.550781 71.855469 83.304688 70.238281 83.09375 68.742188 C 83.035156 68.332031 82.90625 67.949219 82.710938 67.585938 Z M 55.535156 69.242188 C 55.394531 68.992188 55.347656 68.722656 55.390625 68.4375 C 55.433594 68.15625 55.558594 67.914062 55.765625 67.714844 C 56.003906 67.457031 56.296875 67.332031 56.644531 67.332031 C 57.101562 67.347656 57.492188 67.617188 57.902344 67.902344 C 58.171875 68.101562 58.460938 68.269531 58.765625 68.40625 C 58.8125 68.425781 58.863281 68.445312 58.910156 68.460938 C 58.585938 69.347656 57.738281 70.160156 56.773438 70.070312 C 56.214844 70.011719 55.804688 69.734375 55.535156 69.242188 Z M 55.535156 69.242188 " fill-opacity="1" fill-rule="nonzero"/></g></g></g></g></g></g></g><g clip-path="url(#7556038a54)"><g mask="url(#5fd1d6f8b8)"><g transform="matrix(1, 0, 0, 1, 0, 51)"><g clip-path="url(#ea668aaa7a)"><g clip-path="url(#ae2a0d5ea1)"><g clip-path="url(#b5cb5b922d)"><g clip-path="url(#35292fd4dc)"><path fill="#a5be6a" d="M -46.335938 90.90625 C -47.605469 89.21875 -47.589844 86.609375 -46.238281 84.75 C -44.925781 82.957031 -42.5625 81.9375 -40.066406 82.089844 C -37.398438 82.257812 -35.171875 83.640625 -33.769531 84.773438 C -33.226562 85.214844 -32.683594 85.703125 -32.160156 86.179688 C -30.433594 87.742188 -28.648438 89.363281 -26.394531 89.496094 C -26.179688 89.511719 -25.96875 89.507812 -25.757812 89.496094 C -25.546875 89.480469 -25.335938 89.449219 -25.125 89.40625 C -24.917969 89.367188 -24.714844 89.308594 -24.511719 89.242188 C -24.3125 89.171875 -24.117188 89.089844 -23.925781 88.996094 C -23.738281 88.898438 -23.554688 88.792969 -23.378906 88.671875 C -23.199219 88.554688 -23.035156 88.425781 -22.875 88.285156 C -22.714844 88.144531 -22.566406 87.992188 -22.425781 87.832031 C -22.285156 87.671875 -22.15625 87.503906 -22.039062 87.328125 C -21.921875 87.148438 -21.816406 86.964844 -21.722656 86.773438 C -21.632812 86.585938 -21.550781 86.386719 -21.484375 86.1875 C -21.414062 85.984375 -21.359375 85.78125 -21.320312 85.570312 C -21.277344 85.363281 -21.25 85.152344 -21.238281 84.941406 C -21.226562 84.730469 -21.226562 84.515625 -21.238281 84.304688 C -21.253906 84.09375 -21.28125 83.882812 -21.324219 83.675781 C -21.367188 83.464844 -21.421875 83.261719 -21.488281 83.058594 C -21.558594 82.859375 -21.640625 82.664062 -21.734375 82.472656 C -22.03125 81.867188 -22.429688 81.289062 -22.816406 80.726562 C -23.402344 79.871094 -24.011719 78.988281 -24.308594 77.972656 C -24.652344 76.792969 -24.484375 76.097656 -24.019531 75.613281 C -24.683594 74.8125 -25.230469 73.769531 -24.992188 73.011719 C -24.765625 72.289062 -23.976562 71.945312 -23.335938 71.933594 C -22.652344 71.921875 -22 72.199219 -21.425781 72.441406 C -20.65625 72.765625 -20.285156 73.191406 -20.363281 73.671875 C -20.433594 74.128906 -20.875 74.375 -21.296875 74.558594 C -21.5625 74.671875 -21.820312 74.773438 -22.070312 74.875 C -22.710938 75.128906 -23.25 75.339844 -23.625 75.632812 C -23.382812 75.90625 -23.113281 76.148438 -22.8125 76.359375 C -21.390625 77.300781 -18.867188 77.316406 -17.488281 77.242188 C -17.132812 77.222656 -16.773438 77.1875 -16.429688 77.15625 C -15.765625 77.074219 -15.097656 77.042969 -14.429688 77.058594 C -13.570312 77.101562 -12.378906 77.335938 -11.574219 78.210938 C -10.421875 79.464844 -10.617188 81.398438 -10.914062 82.941406 C -11.691406 86.953125 -10.402344 89.332031 -6.867188 90.421875 C -6.113281 90.65625 -5.351562 90.667969 -4.589844 90.464844 C -3.824219 90.257812 -3.175781 89.863281 -2.636719 89.28125 C -2.101562 88.699219 -1.761719 88.019531 -1.621094 87.238281 C -1.476562 86.460938 -1.554688 85.707031 -1.847656 84.972656 C -2.078125 84.394531 -2.445312 83.859375 -2.800781 83.339844 C -3.332031 82.5625 -3.882812 81.761719 -3.996094 80.804688 C -4.089844 80.019531 -3.84375 79.210938 -3.300781 78.523438 C -2.691406 77.738281 -1.898438 77.285156 -0.917969 77.15625 C 0.742188 76.960938 2.519531 77.953125 3.402344 79.566406 C 4.117188 80.878906 4.046875 82.246094 3.976562 83.574219 C 3.914062 84.789062 3.847656 86.050781 4.40625 87.242188 C 4.636719 87.726562 4.957031 88.140625 5.363281 88.488281 C 5.769531 88.835938 6.230469 89.085938 6.742188 89.238281 C 7.535156 89.464844 8.597656 89.386719 9.191406 88.703125 C 9.488281 88.355469 9.632812 87.914062 9.78125 87.449219 C 9.878906 87.097656 10.015625 86.761719 10.183594 86.441406 C 10.8125 85.324219 12.296875 84.796875 13.492188 85.265625 L 13.386719 85.53125 C 12.320312 85.113281 10.996094 85.585938 10.429688 86.582031 C 10.273438 86.886719 10.148438 87.207031 10.054688 87.535156 C 9.902344 88.007812 9.746094 88.5 9.40625 88.890625 C 8.6875 89.722656 7.480469 89.746094 6.664062 89.511719 C 6.109375 89.347656 5.613281 89.082031 5.175781 88.707031 C 4.738281 88.332031 4.394531 87.886719 4.148438 87.363281 C 3.558594 86.105469 3.625 84.8125 3.691406 83.558594 C 3.761719 82.214844 3.828125 80.945312 3.148438 79.703125 C 2.320312 78.191406 0.664062 77.257812 -0.886719 77.4375 C -1.785156 77.5625 -2.515625 77.984375 -3.074219 78.699219 C -3.570312 79.328125 -3.796875 80.0625 -3.710938 80.773438 C -3.609375 81.65625 -3.101562 82.398438 -2.566406 83.179688 C -2.203125 83.710938 -1.824219 84.261719 -1.582031 84.863281 C -1.429688 85.25 -1.328125 85.648438 -1.289062 86.0625 C -1.246094 86.472656 -1.261719 86.882812 -1.339844 87.292969 C -1.414062 87.699219 -1.542969 88.089844 -1.726562 88.460938 C -1.914062 88.832031 -2.148438 89.167969 -2.429688 89.476562 C -2.707031 89.78125 -3.027344 90.039062 -3.382812 90.253906 C -3.734375 90.46875 -4.113281 90.632812 -4.515625 90.738281 C -4.914062 90.847656 -5.320312 90.898438 -5.738281 90.890625 C -6.152344 90.882812 -6.558594 90.816406 -6.953125 90.695312 C -10.605469 89.566406 -11.992188 87.015625 -11.195312 82.886719 C -10.910156 81.410156 -10.71875 79.558594 -11.785156 78.402344 C -12.359375 77.777344 -13.304688 77.402344 -14.445312 77.347656 C -15.097656 77.332031 -15.75 77.363281 -16.402344 77.441406 C -16.75 77.472656 -17.113281 77.507812 -17.472656 77.527344 C -18.886719 77.601562 -21.480469 77.582031 -22.972656 76.597656 C -23.289062 76.375 -23.578125 76.117188 -23.835938 75.828125 C -24.230469 76.253906 -24.335938 76.855469 -24.035156 77.894531 C -23.75 78.863281 -23.15625 79.730469 -22.582031 80.566406 C -22.191406 81.132812 -21.785156 81.722656 -21.476562 82.347656 C -21.378906 82.546875 -21.292969 82.753906 -21.21875 82.96875 C -21.144531 83.179688 -21.085938 83.398438 -21.042969 83.617188 C -21 83.839844 -20.96875 84.0625 -20.953125 84.285156 C -20.9375 84.511719 -20.9375 84.734375 -20.953125 84.960938 C -20.96875 85.183594 -20.996094 85.40625 -21.039062 85.625 C -21.082031 85.847656 -21.140625 86.066406 -21.210938 86.277344 C -21.285156 86.492188 -21.367188 86.699219 -21.46875 86.902344 C -21.566406 87.101562 -21.679688 87.296875 -21.800781 87.484375 C -21.925781 87.671875 -22.0625 87.851562 -22.210938 88.019531 C -22.359375 88.191406 -22.515625 88.351562 -22.683594 88.5 C -22.851562 88.648438 -23.03125 88.785156 -23.21875 88.910156 C -23.402344 89.035156 -23.597656 89.148438 -23.800781 89.25 C -24 89.351562 -24.207031 89.4375 -24.421875 89.511719 C -24.632812 89.585938 -24.847656 89.644531 -25.070312 89.6875 C -25.289062 89.734375 -25.511719 89.761719 -25.738281 89.78125 C -25.960938 89.796875 -26.1875 89.796875 -26.410156 89.78125 C -28.769531 89.640625 -30.589844 87.988281 -32.355469 86.390625 C -32.875 85.917969 -33.410156 85.429688 -33.949219 84.996094 C -35.316406 83.890625 -37.492188 82.535156 -40.082031 82.375 C -42.480469 82.226562 -44.75 83.203125 -46.003906 84.921875 C -47.378906 86.804688 -47.304688 89.503906 -45.828125 91.0625 L -46.039062 91.261719 C -46.144531 91.148438 -46.242188 91.03125 -46.335938 90.90625 Z M -20.757812 73.226562 C -20.929688 73 -21.25 72.824219 -21.539062 72.703125 C -22.085938 72.472656 -22.707031 72.210938 -23.332031 72.222656 C -23.871094 72.230469 -24.535156 72.507812 -24.722656 73.097656 C -24.925781 73.75 -24.417969 74.691406 -23.808594 75.421875 C -23.386719 75.085938 -22.808594 74.859375 -22.175781 74.609375 C -21.929688 74.507812 -21.671875 74.410156 -21.410156 74.296875 C -21.058594 74.144531 -20.691406 73.949219 -20.644531 73.628906 C -20.625 73.476562 -20.664062 73.34375 -20.757812 73.226562 Z M -20.757812 73.226562 " fill-opacity="1" fill-rule="nonzero"/></g></g></g><g clip-path="url(#cb491fd972)"><g clip-path="url(#f294d7e0b7)"><g clip-path="url(#5c8e13435d)"><path fill="#a5be6a" d="M 51.09375 43.121094 C 49.914062 43.097656 48.738281 43.636719 48.109375 44.582031 C 47.640625 45.308594 47.503906 46.09375 47.691406 46.933594 C 47.855469 47.722656 48.285156 48.371094 48.898438 48.765625 C 49.175781 48.933594 49.464844 49.074219 49.765625 49.1875 C 49.988281 49.273438 50.203125 49.371094 50.414062 49.480469 C 50.933594 49.765625 51.347656 50.15625 51.65625 50.664062 C 51.960938 51.167969 52.121094 51.714844 52.132812 52.304688 C 52.144531 52.898438 52.003906 53.449219 51.71875 53.96875 C 51.429688 54.484375 51.03125 54.894531 50.523438 55.195312 C 49.617188 55.730469 48.421875 55.867188 46.859375 55.605469 C 46.449219 55.535156 46.03125 55.445312 45.628906 55.359375 C 44.789062 55.175781 43.917969 54.992188 43.039062 54.972656 L 43.035156 54.972656 C 41.496094 54.945312 40.183594 55.519531 39.519531 56.507812 C 38.675781 57.769531 39.292969 58.679688 39.890625 59.558594 C 40.171875 59.972656 40.460938 60.402344 40.601562 60.871094 C 40.894531 61.851562 40.933594 63.113281 40.265625 63.929688 L 40.261719 63.925781 C 39.398438 63.128906 38.199219 62.804688 37.140625 62.5625 C 36.34375 62.382812 35.496094 62.214844 34.667969 62.355469 C 33.710938 62.519531 32.929688 63.171875 32.722656 63.980469 C 32.546875 64.671875 32.8125 65.351562 33.453125 65.855469 C 33.582031 65.953125 33.703125 66.050781 33.824219 66.140625 C 34.941406 67.007812 35.621094 67.527344 35.957031 69.222656 C 36.167969 70.277344 36.019531 71.800781 34.914062 72.628906 C 34.070312 73.257812 32.949219 73.277344 31.859375 73.296875 C 31.554688 73.304688 31.238281 73.308594 30.933594 73.328125 C 29.183594 73.4375 27.6875 74.074219 26.722656 75.121094 C 25.578125 76.359375 25.289062 78.207031 26.042969 79.511719 C 26.28125 79.929688 26.613281 80.289062 26.9375 80.632812 C 27.367188 81.09375 27.773438 81.53125 27.96875 82.09375 C 28.335938 83.15625 27.78125 84.289062 27.066406 84.941406 C 26.207031 85.726562 25.050781 86.0625 24.136719 86.273438 C 22.339844 86.675781 20.527344 86.789062 18.695312 86.613281 C 16.863281 86.4375 15.105469 85.980469 13.417969 85.242188 L 13.304688 85.496094 C 15.019531 86.25 16.808594 86.710938 18.667969 86.890625 C 20.53125 87.070312 22.375 86.953125 24.199219 86.542969 C 25.144531 86.328125 26.347656 85.972656 27.253906 85.144531 C 28.035156 84.433594 28.640625 83.183594 28.230469 82 C 28.019531 81.386719 27.570312 80.90625 27.140625 80.445312 C 26.828125 80.109375 26.507812 79.765625 26.28125 79.375 C 25.589844 78.171875 25.859375 76.460938 26.925781 75.308594 C 27.84375 74.316406 29.273438 73.710938 30.949219 73.605469 C 31.25 73.585938 31.5625 73.582031 31.863281 73.574219 C 32.996094 73.554688 34.167969 73.53125 35.078125 72.851562 C 36.074219 72.109375 36.527344 70.660156 36.230469 69.167969 C 35.871094 67.371094 35.125 66.796875 33.992188 65.921875 C 33.875 65.832031 33.75 65.734375 33.625 65.636719 C 33.066406 65.199219 32.84375 64.636719 32.992188 64.050781 C 33.171875 63.34375 33.863281 62.773438 34.714844 62.628906 C 35.492188 62.496094 36.308594 62.65625 37.082031 62.835938 C 38.148438 63.078125 39.261719 63.378906 40.070312 64.128906 C 40.074219 64.128906 40.074219 64.132812 40.074219 64.132812 C 40.042969 64.164062 40.011719 64.191406 39.976562 64.21875 C 39.722656 64.40625 39.453125 64.566406 39.164062 64.691406 C 38.699219 64.921875 38.21875 65.160156 37.941406 65.621094 C 37.726562 65.996094 37.6875 66.386719 37.816406 66.796875 C 37.949219 67.242188 38.21875 67.574219 38.632812 67.785156 C 39.375 68.140625 40.375 67.855469 40.863281 67.144531 C 41.503906 66.207031 41.171875 64.9375 40.460938 64.132812 C 41.214844 63.230469 41.183594 61.855469 40.867188 60.792969 C 40.714844 60.28125 40.414062 59.835938 40.117188 59.402344 C 39.523438 58.527344 39.007812 57.769531 39.75 56.660156 C 40.359375 55.75 41.585938 55.222656 43.03125 55.25 C 43.886719 55.265625 44.742188 55.453125 45.570312 55.628906 C 45.976562 55.71875 46.398438 55.808594 46.816406 55.878906 C 48.441406 56.152344 49.703125 56.003906 50.667969 55.433594 C 51.21875 55.105469 51.648438 54.664062 51.960938 54.101562 C 52.273438 53.542969 52.421875 52.941406 52.410156 52.300781 C 52.398438 51.660156 52.222656 51.066406 51.890625 50.519531 C 51.558594 49.972656 51.109375 49.542969 50.546875 49.238281 C 50.328125 49.125 50.101562 49.019531 49.871094 48.929688 C 49.585938 48.824219 49.308594 48.691406 49.046875 48.53125 C 48.496094 48.179688 48.109375 47.59375 47.960938 46.878906 C 47.789062 46.113281 47.917969 45.398438 48.339844 44.738281 C 49.117188 43.570312 50.808594 43.074219 52.1875 43.609375 C 53.503906 44.117188 54.476562 45.46875 54.613281 46.96875 C 54.640625 47.398438 54.640625 47.828125 54.609375 48.257812 C 54.570312 49.058594 54.53125 49.890625 54.875 50.636719 C 55.570312 52.152344 57.523438 52.601562 59.007812 52.15625 C 60.515625 51.707031 61.679688 50.5625 62.710938 49.394531 C 62.84375 49.246094 62.976562 49.09375 63.109375 48.941406 C 63.972656 47.949219 64.867188 46.925781 66 46.265625 C 67.359375 45.476562 69.128906 45.195312 70.984375 45.476562 C 72.828125 45.757812 74.5625 46.539062 75.871094 47.1875 L 75.992188 46.9375 C 74.667969 46.28125 72.90625 45.488281 71.027344 45.203125 C 69.109375 44.910156 67.273438 45.203125 65.863281 46.023438 C 64.6875 46.707031 63.78125 47.75 62.902344 48.757812 C 62.769531 48.910156 62.636719 49.058594 62.503906 49.210938 C 61.496094 50.347656 60.367188 51.460938 58.925781 51.890625 C 57.585938 52.292969 55.753906 51.882812 55.128906 50.519531 C 54.8125 49.835938 54.847656 49.074219 54.886719 48.269531 C 54.917969 47.828125 54.917969 47.386719 54.890625 46.945312 C 54.742188 45.339844 53.699219 43.894531 52.289062 43.351562 C 51.902344 43.203125 51.503906 43.125 51.09375 43.121094 Z M 39.304688 67.664062 C 39.019531 67.664062 38.761719 67.574219 38.535156 67.398438 C 38.304688 67.222656 38.15625 66.996094 38.085938 66.714844 C 37.976562 66.386719 38.007812 66.066406 38.179688 65.761719 C 38.414062 65.371094 38.839844 65.164062 39.289062 64.941406 C 39.59375 64.804688 39.882812 64.636719 40.148438 64.433594 C 40.191406 64.402344 40.230469 64.367188 40.269531 64.332031 C 40.882812 65.050781 41.183594 66.183594 40.632812 66.988281 C 40.308594 67.445312 39.867188 67.667969 39.304688 67.664062 Z M 39.304688 67.664062 " fill-opacity="1" fill-rule="nonzero"/></g></g></g></g></g></g></g></svg>