<svg xmlns="http://www.w3.org/2000/svg" xmlns:xlink="http://www.w3.org/1999/xlink" width="180" zoomAndPan="magnify" viewBox="0 0 135 74.999997" height="100" preserveAspectRatio="xMidYMid meet" version="1.0"><defs><filter x="0%" y="0%" width="100%" height="100%" id="2ff7d1e56e"><feColorMatrix values="0 0 0 0 1 0 0 0 0 1 0 0 0 0 1 0 0 0 1 0" color-interpolation-filters="sRGB"/></filter><mask id="9bcf7e47b5"><g filter="url(#2ff7d1e56e)"><rect x="-13.5" width="162" fill="#000000" y="-7.5" height="89.999996" fill-opacity="0.5"/></g></mask><clipPath id="14177cb522"><path d="M 0 0 L 135 0 L 135 75 L 0 75 Z M 0 0 " clip-rule="nonzero"/></clipPath><clipPath id="e6fdcf8ae7"><rect x="0" width="135" y="0" height="75"/></clipPath><clipPath id="8a02edf14f"><path d="M 35 25 L 135 25 L 135 75 L 35 75 Z M 35 25 " clip-rule="nonzero"/></clipPath><clipPath id="e9558b4151"><path d="M 81.292969 -5.394531 L 137.183594 31.097656 L 87.570312 107.085938 L 31.679688 70.589844 Z M 81.292969 -5.394531 " clip-rule="nonzero"/></clipPath><clipPath id="b5892eb55d"><path d="M 81.292969 -5.394531 L 137.183594 31.097656 L 87.570312 107.085938 L 31.679688 70.589844 Z M 81.292969 -5.394531 " clip-rule="nonzero"/></clipPath><clipPath id="2680d45227"><path d="M 0 0 L 70 0 L 70 62 L 0 62 Z M 0 0 " clip-rule="nonzero"/></clipPath><clipPath id="cad6b3127d"><path d="M -8.832031 1.269531 L 69.097656 -2.058594 L 71.6875 58.636719 L -6.238281 61.964844 Z M -8.832031 1.269531 " clip-rule="nonzero"/></clipPath><clipPath id="aca96977f1"><path d="M -8.832031 1.269531 L 69.097656 -2.058594 L 71.6875 58.636719 L -6.238281 61.964844 Z M -8.832031 1.269531 " clip-rule="nonzero"/></clipPath></defs><rect x="-13.5" width="162" fill="#ffffff" y="-7.5" height="89.999996" fill-opacity="1"/><rect x="-13.5" width="162" fill="#dfd8be" y="-7.5" height="89.999996" fill-opacity="1"/><g mask="url(#9bcf7e47b5)"><g transform="matrix(1, 0, 0, 1, 0, -0.000000000000001893)"><g clip-path="url(#e6fdcf8ae7)"><g clip-path="url(#14177cb522)"><rect x="-29.7" width="194.4" fill="#a5be6a" height="107.999996" y="-16.499999" fill-opacity="1"/></g></g></g></g><g clip-path="url(#8a02edf14f)"><g clip-path="url(#e9558b4151)"><g clip-path="url(#b5892eb55d)"><path fill="#f3edd8" d="M 39.722656 76.167969 C 36.574219 74.113281 35.023438 69.738281 36.167969 65.816406 C 37.273438 62.019531 40.609375 58.886719 44.875 57.636719 C 49.433594 56.304688 54 57.273438 57.023438 58.320312 C 58.203125 58.726562 59.402344 59.21875 60.5625 59.695312 C 64.394531 61.269531 68.359375 62.898438 72.214844 61.761719 C 72.574219 61.65625 72.929688 61.523438 73.273438 61.371094 C 73.621094 61.21875 73.953125 61.042969 74.277344 60.847656 C 74.597656 60.648438 74.90625 60.433594 75.203125 60.195312 C 75.496094 59.957031 75.773438 59.703125 76.035156 59.429688 C 76.292969 59.15625 76.535156 58.867188 76.757812 58.5625 C 76.980469 58.257812 77.183594 57.9375 77.363281 57.605469 C 77.546875 57.273438 77.703125 56.933594 77.839844 56.582031 C 77.976562 56.230469 78.089844 55.867188 78.179688 55.503906 C 78.269531 55.136719 78.335938 54.761719 78.375 54.386719 C 78.417969 54.011719 78.433594 53.636719 78.425781 53.257812 C 78.414062 52.878906 78.382812 52.503906 78.324219 52.132812 C 78.265625 51.757812 78.1875 51.390625 78.078125 51.027344 C 77.972656 50.664062 77.84375 50.3125 77.691406 49.964844 C 77.542969 49.617188 77.367188 49.285156 77.171875 48.960938 C 76.976562 48.636719 76.757812 48.328125 76.523438 48.035156 C 76.289062 47.738281 76.03125 47.460938 75.761719 47.199219 C 74.894531 46.371094 73.878906 45.640625 72.894531 44.933594 C 71.394531 43.859375 69.847656 42.75 68.734375 41.230469 C 67.445312 39.46875 67.3125 38.203125 67.792969 37.113281 C 66.199219 36.171875 64.652344 34.757812 64.59375 33.347656 C 64.535156 32 65.652344 30.953125 66.710938 30.550781 C 67.851562 30.117188 69.105469 30.179688 70.210938 30.238281 C 71.699219 30.316406 72.570312 30.804688 72.738281 31.65625 C 72.894531 32.460938 72.304688 33.140625 71.710938 33.703125 C 71.332031 34.054688 70.960938 34.382812 70.605469 34.695312 C 69.6875 35.507812 68.917969 36.1875 68.46875 36.910156 C 69.035156 37.21875 69.632812 37.460938 70.257812 37.628906 C 73.207031 38.34375 77.4375 36.84375 79.699219 35.886719 C 80.277344 35.640625 80.859375 35.367188 81.417969 35.101562 C 82.480469 34.570312 83.574219 34.113281 84.699219 33.738281 C 86.160156 33.285156 88.296875 32.957031 90.171875 33.933594 C 92.855469 35.332031 93.699219 38.683594 94.132812 41.449219 C 95.261719 48.625 98.847656 51.820312 105.417969 51.507812 C 106.105469 51.476562 106.777344 51.347656 107.429688 51.125 C 108.082031 50.90625 108.691406 50.59375 109.257812 50.199219 C 109.820312 49.804688 110.320312 49.339844 110.753906 48.804688 C 111.1875 48.265625 111.535156 47.679688 111.804688 47.046875 C 112.070312 46.410156 112.242188 45.75 112.324219 45.066406 C 112.402344 44.378906 112.386719 43.699219 112.273438 43.019531 C 112.160156 42.335938 111.953125 41.6875 111.65625 41.066406 C 111.359375 40.445312 110.980469 39.875 110.519531 39.359375 C 109.789062 38.539062 108.847656 37.863281 107.941406 37.210938 C 106.582031 36.234375 105.175781 35.226562 104.410156 33.695312 C 103.78125 32.4375 103.703125 30.933594 104.195312 29.453125 C 104.457031 28.648438 104.859375 27.925781 105.40625 27.28125 C 105.953125 26.636719 106.601562 26.121094 107.351562 25.730469 C 110.011719 24.40625 113.582031 24.988281 116.03125 27.152344 C 118.023438 28.910156 118.730469 31.246094 119.414062 33.503906 C 120.042969 35.578125 120.691406 37.722656 122.351562 39.382812 C 123.027344 40.050781 123.8125 40.550781 124.703125 40.886719 C 125.59375 41.222656 126.511719 41.359375 127.460938 41.304688 C 128.925781 41.207031 130.65625 40.433594 131.234375 38.929688 C 131.523438 38.171875 131.492188 37.347656 131.460938 36.476562 C 131.417969 35.832031 131.4375 35.191406 131.523438 34.550781 C 131.902344 32.304688 134.066406 30.523438 136.34375 30.582031 L 136.332031 31.09375 C 134.296875 31.039062 132.363281 32.628906 132.023438 34.636719 C 131.945312 35.242188 131.925781 35.851562 131.96875 36.460938 C 132.003906 37.34375 132.035156 38.253906 131.707031 39.113281 C 131.007812 40.945312 129 41.710938 127.496094 41.8125 C 126.472656 41.871094 125.480469 41.722656 124.523438 41.363281 C 123.5625 41 122.71875 40.460938 121.992188 39.742188 C 120.242188 37.992188 119.574219 35.785156 118.925781 33.652344 C 118.234375 31.359375 117.578125 29.199219 115.695312 27.535156 C 113.394531 25.503906 110.058594 24.949219 107.578125 26.1875 C 106.890625 26.546875 106.296875 27.023438 105.792969 27.617188 C 105.292969 28.210938 104.921875 28.878906 104.679688 29.613281 C 104.230469 30.964844 104.296875 32.332031 104.863281 33.464844 C 105.574219 34.886719 106.867188 35.8125 108.238281 36.796875 C 109.167969 37.46875 110.128906 38.160156 110.898438 39.023438 C 111.390625 39.574219 111.796875 40.179688 112.113281 40.84375 C 112.433594 41.511719 112.652344 42.207031 112.773438 42.933594 C 112.894531 43.660156 112.914062 44.390625 112.828125 45.125 C 112.742188 45.855469 112.558594 46.5625 112.273438 47.242188 C 111.988281 47.921875 111.613281 48.546875 111.148438 49.121094 C 110.6875 49.695312 110.152344 50.195312 109.546875 50.617188 C 108.945312 51.039062 108.292969 51.371094 107.59375 51.609375 C 106.898438 51.847656 106.179688 51.984375 105.441406 52.019531 C 98.65625 52.339844 94.792969 48.90625 93.632812 41.527344 C 93.214844 38.882812 92.417969 35.671875 89.9375 34.382812 C 88.59375 33.683594 86.789062 33.625 84.851562 34.222656 C 83.746094 34.59375 82.675781 35.039062 81.636719 35.5625 C 81.070312 35.828125 80.484375 36.105469 79.898438 36.355469 C 77.578125 37.335938 73.230469 38.871094 70.140625 38.125 C 69.472656 37.945312 68.835938 37.6875 68.230469 37.355469 C 67.832031 38.308594 68.011719 39.382812 69.144531 40.929688 C 70.210938 42.386719 71.726562 43.472656 73.191406 44.523438 C 74.1875 45.238281 75.222656 45.976562 76.113281 46.832031 C 76.402344 47.109375 76.671875 47.40625 76.921875 47.714844 C 77.171875 48.027344 77.398438 48.355469 77.605469 48.699219 C 77.8125 49.039062 77.996094 49.394531 78.160156 49.761719 C 78.320312 50.125 78.457031 50.5 78.566406 50.886719 C 78.679688 51.269531 78.765625 51.660156 78.828125 52.054688 C 78.886719 52.449219 78.921875 52.847656 78.933594 53.246094 C 78.941406 53.648438 78.925781 54.046875 78.882812 54.441406 C 78.835938 54.839844 78.769531 55.234375 78.675781 55.621094 C 78.578125 56.011719 78.460938 56.390625 78.316406 56.765625 C 78.171875 57.136719 78.003906 57.5 77.8125 57.851562 C 77.621094 58.203125 77.40625 58.539062 77.167969 58.863281 C 76.933594 59.183594 76.679688 59.492188 76.402344 59.78125 C 76.125 60.070312 75.832031 60.339844 75.519531 60.589844 C 75.210938 60.84375 74.882812 61.070312 74.542969 61.28125 C 74.199219 61.488281 73.847656 61.675781 73.480469 61.835938 C 73.117188 62 72.742188 62.136719 72.359375 62.25 C 68.328125 63.4375 64.285156 61.773438 60.371094 60.167969 C 59.214844 59.691406 58.023438 59.203125 56.859375 58.800781 C 53.902344 57.777344 49.449219 56.828125 45.019531 58.125 C 40.917969 59.328125 37.714844 62.328125 36.65625 65.957031 C 35.496094 69.9375 37.253906 74.40625 40.660156 76.125 L 40.433594 76.578125 C 40.1875 76.453125 39.953125 76.316406 39.722656 76.167969 Z M 71.800781 31.148438 C 71.382812 30.875 70.742188 30.777344 70.183594 30.746094 C 69.128906 30.691406 67.929688 30.628906 66.894531 31.023438 C 65.996094 31.367188 65.054688 32.230469 65.101562 33.328125 C 65.152344 34.542969 66.570312 35.808594 68.03125 36.664062 C 68.53125 35.851562 69.359375 35.117188 70.269531 34.316406 C 70.621094 34.003906 70.988281 33.679688 71.363281 33.328125 C 71.855469 32.867188 72.347656 32.316406 72.238281 31.753906 C 72.179688 31.488281 72.035156 31.289062 71.800781 31.148438 Z M 71.800781 31.148438 " fill-opacity="1" fill-rule="nonzero"/></g></g></g><g clip-path="url(#2680d45227)"><g clip-path="url(#cad6b3127d)"><g clip-path="url(#aca96977f1)"><path fill="#f3edd8" d="M 68.6875 0.0195312 C 68.480469 0.324219 68.242188 0.605469 67.988281 0.871094 C 67.847656 1.015625 67.695312 1.128906 67.488281 1.160156 C 67.027344 1.222656 66.570312 1.304688 66.105469 1.347656 C 64.683594 1.46875 63.378906 1.90625 62.183594 2.691406 C 60.890625 3.539062 59.785156 4.585938 58.773438 5.738281 C 58.019531 6.59375 57.28125 7.460938 56.394531 8.183594 C 54.78125 9.5 52.964844 10.277344 50.863281 10.335938 C 49.53125 10.375 48.230469 10.167969 46.933594 9.886719 C 46.089844 9.703125 45.25 9.464844 44.375 9.453125 C 42.414062 9.421875 40.898438 10.320312 39.773438 11.847656 C 38.292969 13.851562 37.929688 16.191406 38.03125 18.609375 C 38.082031 19.851562 38.394531 21.070312 38.660156 22.289062 C 38.914062 23.460938 39.171875 24.636719 39.171875 25.851562 C 39.167969 26.566406 39.058594 27.253906 38.75 27.90625 C 37.757812 30.011719 35.527344 30.707031 33.511719 29.542969 C 33.082031 29.292969 32.683594 29.003906 32.3125 28.679688 C 33.121094 28.519531 33.867188 28.097656 34.46875 27.429688 C 35.328125 26.476562 35.71875 25.34375 35.742188 24.070312 C 35.765625 22.679688 35.433594 21.339844 35.152344 19.996094 C 34.792969 18.296875 34.421875 16.605469 34.628906 14.851562 C 34.808594 13.371094 35.125 11.929688 35.949219 10.671875 C 37.179688 8.78125 39.046875 7.703125 41.511719 8.226562 C 42.613281 8.460938 43.710938 8.722656 44.828125 8.871094 C 47.167969 9.1875 49.382812 8.871094 51.433594 7.640625 C 52.753906 6.847656 53.832031 5.789062 54.824219 4.628906 C 55.558594 3.773438 56.335938 2.957031 57.1875 2.214844 C 58.804688 0.800781 60.664062 -0.03125 62.820312 -0.0820312 C 64.117188 -0.109375 64.78125 -0.925781 65.367188 -1.902344 C 65.148438 -1.894531 64.933594 -1.882812 64.714844 -1.875 C 64.507812 -1.566406 64.269531 -1.285156 64.015625 -1.019531 C 63.875 -0.878906 63.722656 -0.761719 63.515625 -0.734375 C 63.054688 -0.671875 62.597656 -0.589844 62.132812 -0.546875 C 60.710938 -0.425781 59.40625 0.0117188 58.210938 0.796875 C 56.917969 1.648438 55.8125 2.691406 54.800781 3.84375 C 54.046875 4.699219 53.308594 5.566406 52.421875 6.289062 C 50.808594 7.605469 48.992188 8.382812 46.890625 8.445312 C 45.558594 8.484375 44.257812 8.277344 42.964844 7.996094 C 42.117188 7.8125 41.277344 7.574219 40.40625 7.558594 C 38.441406 7.53125 36.929688 8.425781 35.800781 9.953125 C 34.320312 11.957031 33.957031 14.296875 34.058594 16.714844 C 34.109375 17.960938 34.421875 19.175781 34.6875 20.394531 C 34.941406 21.570312 35.199219 22.746094 35.199219 23.957031 C 35.199219 24.671875 35.085938 25.359375 34.78125 26.011719 C 34.152344 27.335938 33.039062 28.105469 31.796875 28.199219 C 31.726562 28.132812 31.660156 28.0625 31.59375 27.992188 C 30.511719 26.851562 29.675781 25.535156 28.898438 24.175781 C 28.425781 23.347656 28 22.488281 27.34375 21.777344 C 26.6875 21.070312 25.871094 20.792969 24.925781 21.011719 C 24.714844 21.0625 24.511719 21.121094 24.3125 21.191406 C 24.039062 20.730469 23.742188 20.285156 23.375 19.886719 C 22.71875 19.175781 21.902344 18.898438 20.957031 19.117188 C 19.183594 19.535156 17.949219 20.652344 17.230469 22.28125 C 16.078125 24.890625 15.890625 27.617188 16.480469 30.398438 C 16.773438 31.792969 17.3125 33.109375 17.8125 34.4375 C 18.183594 35.433594 18.503906 36.449219 18.5 37.53125 C 18.5 37.730469 18.484375 37.929688 18.453125 38.121094 C 17.976562 36.984375 17.65625 35.792969 17.351562 34.59375 C 16.972656 33.082031 16.621094 31.558594 16.046875 30.105469 C 15.78125 29.4375 15.492188 28.78125 15.015625 28.234375 C 14.394531 27.519531 13.609375 27.476562 12.90625 28.105469 C 12.65625 28.328125 12.46875 28.589844 12.320312 28.875 C 12.242188 28.652344 12.164062 28.429688 12.078125 28.210938 C 11.8125 27.542969 11.523438 26.886719 11.046875 26.339844 C 10.425781 25.625 9.640625 25.582031 8.9375 26.214844 C 8.492188 26.609375 8.242188 27.125 8.054688 27.675781 C 7.503906 29.292969 7.351562 30.976562 7.304688 32.667969 C 7.242188 34.929688 7.644531 37.113281 8.394531 39.242188 C 9.4375 42.195312 10.660156 45.082031 11.9375 47.941406 C 12.800781 49.871094 13.617188 51.820312 14.089844 53.894531 C 14.292969 54.789062 14.359375 55.695312 14.046875 56.589844 C 13.820312 57.238281 13.484375 57.4375 12.808594 57.351562 C 12.785156 57.347656 12.761719 57.34375 12.734375 57.339844 C 11.664062 56.488281 10.78125 55.445312 9.957031 54.34375 C 9.15625 53.273438 8.335938 52.222656 7.296875 51.367188 C 6.402344 50.632812 5.425781 50.324219 4.382812 50.476562 C 4.054688 50.125 3.707031 49.785156 3.328125 49.476562 C 2.183594 48.535156 0.90625 48.289062 -0.476562 48.820312 C -2.855469 49.730469 -4.570312 51.335938 -5.492188 53.742188 C -5.84375 54.664062 -6.160156 55.597656 -6.460938 56.535156 C -6.410156 57.730469 -6.359375 58.921875 -6.308594 60.113281 C -5.953125 59.945312 -6.121094 59.632812 -6.15625 59.398438 C -6.242188 58.8125 -6.25 58.230469 -6.15625 57.652344 C -5.933594 56.25 -5.386719 54.945312 -4.863281 53.636719 C -4.089844 51.703125 -2.65625 50.402344 -0.8125 49.519531 C -0.199219 49.226562 0.441406 49.042969 1.132812 49.09375 C 1.855469 49.144531 2.464844 49.453125 3.011719 49.90625 C 3.28125 50.128906 3.53125 50.367188 3.773438 50.613281 C 3.679688 50.644531 3.589844 50.675781 3.492188 50.710938 C 1.113281 51.621094 -0.597656 53.226562 -1.523438 55.632812 C -1.875 56.554688 -2.191406 57.488281 -2.492188 58.429688 C -2.441406 59.621094 -2.390625 60.8125 -2.339844 62.003906 C -1.984375 61.835938 -2.152344 61.523438 -2.1875 61.292969 C -2.273438 60.707031 -2.28125 60.125 -2.1875 59.542969 C -1.964844 58.140625 -1.417969 56.835938 -0.894531 55.53125 C -0.121094 53.597656 1.3125 52.292969 3.160156 51.414062 C 3.492188 51.253906 3.832031 51.128906 4.183594 51.050781 C 4.558594 51.46875 4.90625 51.90625 5.242188 52.351562 C 6.101562 53.488281 6.957031 54.625 8.050781 55.542969 C 9.3125 56.601562 10.675781 57.46875 12.316406 57.804688 C 12.390625 57.820312 12.460938 57.835938 12.535156 57.851562 C 13.652344 58.71875 14.867188 59.40625 16.289062 59.699219 C 16.617188 59.765625 16.949219 59.839844 17.285156 59.792969 C 17.960938 59.699219 18.316406 59.25 18.527344 58.648438 C 18.847656 57.714844 18.808594 56.769531 18.617188 55.824219 C 18.324219 54.40625 17.847656 53.042969 17.289062 51.714844 C 16.082031 48.847656 14.789062 46.019531 13.660156 43.117188 C 12.625 40.464844 11.738281 37.777344 11.8125 34.871094 C 11.847656 33.417969 11.945312 31.980469 12.289062 30.566406 C 12.5625 31.558594 12.796875 32.558594 13.054688 33.554688 C 13.46875 35.136719 13.976562 36.675781 14.835938 38.078125 C 15.222656 38.707031 15.652344 39.308594 16.261719 39.75 C 17.074219 40.339844 17.957031 40.207031 18.5 39.4375 C 18.59375 39.617188 18.695312 39.792969 18.804688 39.96875 C 19.191406 40.601562 19.621094 41.203125 20.230469 41.644531 C 21.121094 42.289062 22.097656 42.070312 22.613281 41.097656 C 23.003906 40.363281 23.070312 39.570312 22.972656 38.757812 C 22.824219 37.527344 22.378906 36.386719 21.9375 35.242188 C 21.160156 33.230469 20.578125 31.179688 20.679688 28.984375 C 20.75 27.476562 20.992188 26.011719 21.574219 24.613281 C 22.085938 23.390625 22.910156 22.449219 24.082031 21.867188 C 24.222656 22.109375 24.359375 22.351562 24.496094 22.59375 C 25.152344 23.742188 25.84375 24.871094 26.710938 25.878906 C 27.609375 26.925781 28.59375 27.863281 29.890625 28.40625 C 30.460938 28.648438 31.039062 28.761719 31.601562 28.753906 C 32.257812 29.390625 32.988281 29.933594 33.859375 30.300781 C 35.527344 31 37.257812 30.632812 38.4375 29.324219 C 39.296875 28.371094 39.691406 27.238281 39.710938 25.964844 C 39.734375 24.574219 39.402344 23.234375 39.121094 21.890625 C 38.765625 20.191406 38.390625 18.5 38.601562 16.746094 C 38.777344 15.265625 39.09375 13.824219 39.917969 12.566406 C 41.152344 10.675781 43.015625 9.597656 45.480469 10.121094 C 46.582031 10.355469 47.679688 10.617188 48.796875 10.765625 C 51.140625 11.082031 53.351562 10.765625 55.402344 9.535156 C 56.722656 8.742188 57.800781 7.683594 58.792969 6.523438 C 59.527344 5.667969 60.304688 4.851562 61.15625 4.109375 C 62.773438 2.695312 64.632812 1.863281 66.789062 1.8125 C 68.085938 1.785156 68.75 0.96875 69.335938 -0.0078125 C 69.121094 0 68.90625 0.0078125 68.6875 0.0195312 Z M 5.988281 52.449219 C 5.613281 51.949219 5.234375 51.453125 4.828125 50.976562 C 4.917969 50.976562 5.011719 50.976562 5.105469 50.984375 C 5.828125 51.039062 6.4375 51.347656 6.980469 51.800781 C 7.839844 52.511719 8.542969 53.363281 9.214844 54.246094 C 9.957031 55.230469 10.699219 56.21875 11.601562 57.0625 C 10.859375 56.804688 10.171875 56.417969 9.503906 55.980469 C 8.085938 55.050781 6.992188 53.792969 5.988281 52.449219 Z M 11.277344 34.5625 C 11.210938 36.820312 11.613281 39.007812 12.363281 41.132812 C 13.410156 44.089844 14.628906 46.976562 15.910156 49.835938 C 16.773438 51.765625 17.589844 53.714844 18.058594 55.785156 C 18.265625 56.683594 18.328125 57.589844 18.019531 58.484375 C 17.792969 59.132812 17.453125 59.328125 16.78125 59.246094 C 15.550781 59.089844 14.488281 58.542969 13.472656 57.875 C 13.472656 57.875 13.472656 57.871094 13.46875 57.871094 C 14.046875 57.734375 14.363281 57.308594 14.554688 56.753906 C 14.878906 55.824219 14.839844 54.878906 14.644531 53.929688 C 14.355469 52.511719 13.875 51.152344 13.316406 49.824219 C 12.113281 46.957031 10.816406 44.125 9.6875 41.226562 C 8.65625 38.570312 7.769531 35.886719 7.84375 32.980469 C 7.878906 31.511719 7.976562 30.058594 8.328125 28.628906 C 8.488281 27.976562 8.671875 27.324219 9.125 26.796875 C 9.710938 26.113281 10.273438 26.144531 10.792969 26.875 C 11.222656 27.484375 11.503906 28.164062 11.753906 28.859375 C 11.84375 29.113281 11.925781 29.367188 12.007812 29.625 C 11.472656 31.226562 11.324219 32.890625 11.277344 34.5625 Z M 18.058594 39.132812 C 17.730469 39.601562 17.289062 39.703125 16.78125 39.441406 C 16.585938 39.339844 16.417969 39.207031 16.261719 39.054688 C 15.835938 38.648438 15.503906 38.164062 15.203125 37.660156 C 14.289062 36.121094 13.820312 34.417969 13.386719 32.703125 C 13.125 31.671875 12.878906 30.636719 12.566406 29.617188 C 12.691406 29.285156 12.855469 28.96875 13.097656 28.691406 C 13.683594 28.007812 14.246094 28.035156 14.761719 28.765625 C 15.191406 29.375 15.476562 30.054688 15.722656 30.75 C 16.273438 32.285156 16.617188 33.875 17.027344 35.449219 C 17.332031 36.625 17.695312 37.78125 18.214844 38.875 C 18.167969 38.964844 18.117188 39.050781 18.058594 39.132812 Z M 21.199219 24.175781 C 20.046875 26.785156 19.863281 29.507812 20.449219 32.289062 C 20.746094 33.683594 21.285156 35 21.78125 36.332031 C 22.15625 37.328125 22.476562 38.339844 22.472656 39.421875 C 22.46875 39.996094 22.367188 40.546875 22.027344 41.027344 C 21.699219 41.492188 21.257812 41.597656 20.75 41.335938 C 20.554688 41.234375 20.386719 41.097656 20.230469 40.949219 C 19.804688 40.539062 19.472656 40.054688 19.171875 39.550781 C 19.039062 39.328125 18.917969 39.097656 18.800781 38.867188 C 19.050781 38.230469 19.089844 37.550781 19.003906 36.863281 C 18.855469 35.632812 18.410156 34.492188 17.96875 33.347656 C 17.191406 31.335938 16.609375 29.285156 16.710938 27.089844 C 16.78125 25.582031 17.023438 24.117188 17.605469 22.71875 C 18.164062 21.382812 19.09375 20.386719 20.445312 19.820312 C 21.632812 19.324219 22.53125 19.582031 23.292969 20.621094 C 23.476562 20.875 23.648438 21.136719 23.808594 21.402344 C 22.625 21.960938 21.757812 22.914062 21.199219 24.175781 Z M 29.542969 27.648438 C 28.824219 27.234375 28.195312 26.699219 27.628906 26.097656 C 26.546875 24.957031 25.707031 23.640625 24.933594 22.28125 C 24.816406 22.074219 24.699219 21.863281 24.582031 21.652344 C 25.6875 21.246094 26.539062 21.527344 27.265625 22.515625 C 27.722656 23.140625 28.085938 23.816406 28.46875 24.484375 C 29.125 25.636719 29.816406 26.761719 30.683594 27.769531 C 30.800781 27.910156 30.921875 28.042969 31.042969 28.175781 C 30.542969 28.109375 30.035156 27.933594 29.542969 27.648438 Z M 29.542969 27.648438 " fill-opacity="1" fill-rule="nonzero"/></g></g></g></svg>