<svg xmlns="http://www.w3.org/2000/svg" xmlns:xlink="http://www.w3.org/1999/xlink" width="100" zoomAndPan="magnify" viewBox="0 0 75 142.499996" height="190" preserveAspectRatio="xMidYMid meet" version="1.0"><defs><clipPath id="3248b154f4"><path d="M 0.132812 0 L 74.867188 0 L 74.867188 142 L 0.132812 142 Z M 0.132812 0 " clip-rule="nonzero"/></clipPath><clipPath id="9c439f77d1"><path d="M 0.132812 11 L 29 11 L 29 65 L 0.132812 65 Z M 0.132812 11 " clip-rule="nonzero"/></clipPath><clipPath id="685470e5e6"><path d="M 42.570312 30.445312 L 27.324219 64.90625 L -19.515625 44.183594 L -4.269531 9.722656 Z M 42.570312 30.445312 " clip-rule="nonzero"/></clipPath><clipPath id="0c277ba635"><path d="M 42.570312 30.445312 L 27.324219 64.90625 L -19.515625 44.183594 L -4.269531 9.722656 Z M 42.570312 30.445312 " clip-rule="nonzero"/></clipPath><clipPath id="5ebf4641c9"><path d="M 27 64 L 74.867188 64 L 74.867188 101 L 27 101 Z M 27 64 " clip-rule="nonzero"/></clipPath><clipPath id="5ead81fef4"><path d="M 54.917969 119.714844 L 25.757812 65.011719 L 65.390625 43.882812 L 94.550781 98.585938 Z M 54.917969 119.714844 " clip-rule="nonzero"/></clipPath><clipPath id="b1ec4f8abf"><path d="M 25.761719 65.023438 L 54.921875 119.722656 L 94.554688 98.59375 L 65.394531 43.894531 Z M 25.761719 65.023438 " clip-rule="nonzero"/></clipPath><clipPath id="f1d3a9d618"><path d="M 0.132812 122 L 14 122 L 14 142 L 0.132812 142 Z M 0.132812 122 " clip-rule="nonzero"/></clipPath><clipPath id="dbcf357a14"><path d="M -8.753906 106.710938 L 13.921875 136.808594 L -26.992188 167.628906 L -49.664062 137.527344 Z M -8.753906 106.710938 " clip-rule="nonzero"/></clipPath><clipPath id="f24810120c"><path d="M -8.753906 106.710938 L 13.921875 136.808594 L -26.992188 167.628906 L -49.664062 137.527344 Z M -8.753906 106.710938 " clip-rule="nonzero"/></clipPath><clipPath id="f2df8908c1"><path d="M 13 94 L 74.867188 94 L 74.867188 138 L 13 138 Z M 13 94 " clip-rule="nonzero"/></clipPath><clipPath id="134ccb48fc"><path d="M 75.226562 139.398438 L 13.25 138.230469 L 14.097656 93.324219 L 76.074219 94.492188 Z M 75.226562 139.398438 " clip-rule="nonzero"/></clipPath><clipPath id="d0f6177177"><path d="M 13.257812 138.230469 L 75.234375 139.398438 L 76.082031 94.492188 L 14.105469 93.324219 Z M 13.257812 138.230469 " clip-rule="nonzero"/></clipPath></defs><g clip-path="url(#3248b154f4)"><path fill="#ffffff" d="M 0.132812 0 L 74.867188 0 L 74.867188 142 L 0.132812 142 Z M 0.132812 0 " fill-opacity="1" fill-rule="nonzero"/><path fill="#f3edd8" d="M 0.132812 0 L 74.867188 0 L 74.867188 142 L 0.132812 142 Z M 0.132812 0 " fill-opacity="1" fill-rule="nonzero"/></g><g clip-path="url(#9c439f77d1)"><g clip-path="url(#685470e5e6)"><g clip-path="url(#0c277ba635)"><path fill="#dfd8be" d="M -6.472656 14.761719 C -5.617188 12.828125 -3.328125 11.570312 -1.046875 11.851562 C 1.160156 12.121094 3.199219 13.691406 4.28125 15.945312 C 5.433594 18.355469 5.3125 20.976562 5.003906 22.75 C 4.882812 23.441406 4.71875 24.152344 4.558594 24.839844 C 4.035156 27.109375 3.488281 29.457031 4.46875 31.492188 C 4.5625 31.683594 4.667969 31.871094 4.78125 32.046875 C 4.898438 32.226562 5.027344 32.394531 5.164062 32.554688 C 5.304688 32.71875 5.453125 32.867188 5.609375 33.011719 C 5.769531 33.152344 5.933594 33.28125 6.109375 33.402344 C 6.285156 33.523438 6.46875 33.628906 6.65625 33.726562 C 6.847656 33.824219 7.042969 33.90625 7.242188 33.976562 C 7.445312 34.046875 7.648438 34.105469 7.855469 34.148438 C 8.0625 34.191406 8.273438 34.222656 8.484375 34.238281 C 8.695312 34.253906 8.910156 34.257812 9.121094 34.246094 C 9.332031 34.234375 9.542969 34.210938 9.753906 34.171875 C 9.960938 34.132812 10.167969 34.078125 10.371094 34.011719 C 10.570312 33.945312 10.769531 33.867188 10.960938 33.777344 C 11.152344 33.683594 11.335938 33.582031 11.515625 33.464844 C 11.691406 33.351562 11.863281 33.222656 12.023438 33.085938 C 12.1875 32.949219 12.339844 32.800781 12.480469 32.640625 C 12.621094 32.484375 12.753906 32.316406 12.875 32.140625 C 13.257812 31.585938 13.570312 30.957031 13.871094 30.34375 C 14.332031 29.417969 14.808594 28.457031 15.550781 27.703125 C 16.410156 26.828125 17.101562 26.636719 17.753906 26.804688 C 18.128906 25.835938 18.773438 24.847656 19.550781 24.6875 C 20.292969 24.535156 20.976562 25.058594 21.296875 25.609375 C 21.640625 26.203125 21.71875 26.90625 21.785156 27.523438 C 21.878906 28.355469 21.6875 28.886719 21.230469 29.054688 C 20.796875 29.214844 20.363281 28.949219 20 28.671875 C 19.769531 28.492188 19.554688 28.316406 19.347656 28.148438 C 18.816406 27.710938 18.367188 27.347656 17.925781 27.160156 C 17.804688 27.503906 17.726562 27.859375 17.6875 28.222656 C 17.558594 29.921875 18.777344 32.136719 19.511719 33.304688 C 19.699219 33.601562 19.90625 33.898438 20.101562 34.1875 C 20.496094 34.726562 20.847656 35.292969 21.160156 35.882812 C 21.539062 36.65625 21.917969 37.8125 21.546875 38.941406 C 21.011719 40.554688 19.226562 41.328125 17.734375 41.820312 C 13.851562 43.097656 12.402344 45.378906 13.171875 48.996094 C 13.335938 49.769531 13.691406 50.441406 14.246094 51.007812 C 14.796875 51.574219 15.457031 51.949219 16.226562 52.136719 C 16.996094 52.320312 17.757812 52.285156 18.507812 52.03125 C 19.253906 51.777344 19.878906 51.34375 20.375 50.726562 C 20.765625 50.246094 21.054688 49.664062 21.335938 49.101562 C 21.753906 48.257812 22.1875 47.386719 22.96875 46.820312 C 23.609375 46.359375 24.4375 46.179688 25.304688 46.320312 C 26.28125 46.46875 27.066406 46.9375 27.65625 47.734375 C 28.632812 49.089844 28.632812 51.125 27.652344 52.679688 C 26.859375 53.945312 25.625 54.550781 24.433594 55.132812 C 23.339844 55.671875 22.207031 56.226562 21.4375 57.296875 C 21.128906 57.734375 20.921875 58.214844 20.816406 58.738281 C 20.710938 59.261719 20.71875 59.785156 20.835938 60.308594 C 21.019531 61.109375 21.605469 62.003906 22.492188 62.1875 C 22.941406 62.277344 23.394531 62.1875 23.875 62.089844 C 24.230469 62.007812 24.589844 61.960938 24.953125 61.949219 C 26.234375 61.957031 27.417969 62.996094 27.589844 64.265625 L 27.308594 64.304688 C 27.152344 63.171875 26.09375 62.242188 24.949219 62.234375 C 24.605469 62.246094 24.265625 62.292969 23.933594 62.371094 C 23.445312 62.46875 22.941406 62.570312 22.4375 62.464844 C 21.355469 62.242188 20.746094 61.199219 20.554688 60.371094 C 20.429688 59.808594 20.421875 59.246094 20.535156 58.683594 C 20.648438 58.117188 20.871094 57.597656 21.207031 57.128906 C 22.015625 56 23.183594 55.429688 24.308594 54.875 C 25.515625 54.285156 26.660156 53.722656 27.410156 52.527344 C 28.332031 51.066406 28.335938 49.164062 27.421875 47.898438 C 26.875 47.175781 26.15625 46.742188 25.257812 46.601562 C 24.46875 46.472656 23.714844 46.632812 23.136719 47.054688 C 22.414062 47.578125 22.015625 48.378906 21.59375 49.226562 C 21.304688 49.804688 21.007812 50.402344 20.597656 50.90625 C 20.339844 51.230469 20.039062 51.507812 19.699219 51.746094 C 19.355469 51.984375 18.992188 52.167969 18.597656 52.300781 C 18.207031 52.4375 17.800781 52.511719 17.386719 52.53125 C 16.972656 52.550781 16.5625 52.511719 16.160156 52.414062 C 15.757812 52.316406 15.375 52.167969 15.015625 51.960938 C 14.65625 51.757812 14.328125 51.503906 14.039062 51.207031 C 13.75 50.910156 13.507812 50.578125 13.3125 50.214844 C 13.117188 49.847656 12.976562 49.460938 12.890625 49.054688 C 12.097656 45.316406 13.652344 42.863281 17.644531 41.546875 C 19.074219 41.078125 20.785156 40.34375 21.273438 38.851562 C 21.542969 38.042969 21.410156 37.03125 20.902344 36.011719 C 20.597656 35.433594 20.253906 34.878906 19.867188 34.347656 C 19.667969 34.058594 19.460938 33.757812 19.269531 33.457031 C 18.515625 32.257812 17.269531 29.980469 17.402344 28.199219 C 17.441406 27.8125 17.527344 27.4375 17.65625 27.070312 C 17.089844 26.933594 16.511719 27.132812 15.753906 27.902344 C 15.042969 28.625 14.578125 29.5625 14.128906 30.472656 C 13.820312 31.089844 13.503906 31.730469 13.109375 32.304688 C 12.984375 32.488281 12.84375 32.664062 12.691406 32.832031 C 12.542969 33 12.382812 33.15625 12.210938 33.304688 C 12.039062 33.449219 11.859375 33.582031 11.671875 33.707031 C 11.480469 33.828125 11.285156 33.9375 11.082031 34.035156 C 10.878906 34.132812 10.671875 34.214844 10.457031 34.285156 C 10.242188 34.355469 10.027344 34.410156 9.804688 34.453125 C 9.585938 34.492188 9.363281 34.519531 9.136719 34.53125 C 8.910156 34.542969 8.6875 34.539062 8.464844 34.523438 C 8.238281 34.507812 8.015625 34.472656 7.796875 34.425781 C 7.578125 34.382812 7.359375 34.320312 7.148438 34.246094 C 6.9375 34.171875 6.730469 34.082031 6.527344 33.980469 C 6.328125 33.878906 6.136719 33.765625 5.949219 33.640625 C 5.761719 33.511719 5.585938 33.375 5.417969 33.222656 C 5.25 33.074219 5.09375 32.914062 4.949219 32.742188 C 4.800781 32.570312 4.667969 32.390625 4.542969 32.203125 C 4.421875 32.015625 4.308594 31.820312 4.210938 31.617188 C 3.1875 29.488281 3.742188 27.09375 4.28125 24.773438 C 4.441406 24.089844 4.605469 23.382812 4.722656 22.703125 C 5.023438 20.96875 5.144531 18.410156 4.023438 16.066406 C 2.984375 13.902344 1.027344 12.394531 -1.082031 12.136719 C -3.398438 11.851562 -5.71875 13.234375 -6.363281 15.28125 L -6.636719 15.195312 C -6.589844 15.046875 -6.535156 14.902344 -6.472656 14.761719 Z M 21.425781 28.488281 C 21.539062 28.230469 21.535156 27.867188 21.503906 27.554688 C 21.4375 26.964844 21.363281 26.292969 21.050781 25.753906 C 20.78125 25.289062 20.214844 24.84375 19.609375 24.96875 C 18.9375 25.105469 18.363281 26.007812 18.019531 26.894531 C 18.519531 27.101562 19 27.496094 19.527344 27.925781 C 19.734375 28.09375 19.949219 28.269531 20.175781 28.445312 C 20.476562 28.675781 20.828125 28.898438 21.128906 28.785156 C 21.273438 28.730469 21.371094 28.632812 21.425781 28.488281 Z M 21.425781 28.488281 " fill-opacity="1" fill-rule="nonzero"/></g></g></g><g clip-path="url(#5ebf4641c9)"><g clip-path="url(#5ead81fef4)"><g clip-path="url(#b1ec4f8abf)"><path fill="#dfd8be" d="M 82.710938 76.585938 C 82.160156 75.546875 81.113281 74.78125 79.980469 74.691406 C 79.121094 74.636719 78.367188 74.898438 77.722656 75.46875 C 77.113281 75.996094 76.753906 76.6875 76.710938 77.417969 C 76.699219 77.738281 76.71875 78.0625 76.765625 78.378906 C 76.796875 78.617188 76.816406 78.851562 76.824219 79.089844 C 76.832031 79.683594 76.6875 80.234375 76.398438 80.75 C 76.105469 81.261719 75.703125 81.667969 75.195312 81.964844 C 74.683594 82.265625 74.132812 82.414062 73.542969 82.414062 C 72.949219 82.414062 72.398438 82.265625 71.890625 81.96875 C 70.976562 81.4375 70.277344 80.457031 69.746094 78.96875 C 69.609375 78.574219 69.484375 78.167969 69.363281 77.773438 C 69.109375 76.949219 68.847656 76.097656 68.433594 75.320312 C 67.710938 73.964844 66.570312 73.09375 65.382812 72.996094 C 63.871094 72.871094 63.375 73.855469 62.898438 74.804688 C 62.671875 75.253906 62.4375 75.71875 62.097656 76.066406 C 61.382812 76.800781 60.300781 77.449219 59.261719 77.261719 L 59.265625 77.257812 C 59.542969 76.117188 59.238281 74.910156 58.933594 73.867188 C 58.707031 73.082031 58.4375 72.261719 57.910156 71.605469 C 57.304688 70.851562 56.351562 70.484375 55.546875 70.699219 C 54.859375 70.882812 54.390625 71.449219 54.265625 72.25 C 54.238281 72.410156 54.214844 72.5625 54.195312 72.710938 C 53.984375 74.113281 53.859375 74.957031 52.542969 76.078125 C 51.722656 76.773438 50.320312 77.390625 49.058594 76.824219 C 48.101562 76.394531 47.535156 75.421875 46.988281 74.484375 C 46.835938 74.21875 46.675781 73.945312 46.507812 73.6875 C 45.5625 72.214844 44.277344 71.21875 42.894531 70.882812 C 41.253906 70.484375 39.5 71.136719 38.726562 72.429688 C 38.476562 72.839844 38.328125 73.304688 38.183594 73.757812 C 37.988281 74.355469 37.808594 74.925781 37.410156 75.367188 C 36.664062 76.207031 35.402344 76.273438 34.484375 75.96875 C 33.382812 75.597656 32.519531 74.753906 31.894531 74.054688 C 30.667969 72.683594 29.683594 71.15625 28.945312 69.46875 C 28.207031 67.785156 27.75 66.023438 27.574219 64.191406 L 27.296875 64.21875 C 27.476562 66.082031 27.941406 67.867188 28.691406 69.582031 C 29.441406 71.292969 30.441406 72.847656 31.6875 74.242188 C 32.335938 74.964844 33.230469 75.839844 34.394531 76.230469 C 35.398438 76.566406 36.785156 76.484375 37.617188 75.554688 C 38.054688 75.066406 38.253906 74.445312 38.449219 73.839844 C 38.585938 73.40625 38.734375 72.957031 38.964844 72.570312 C 39.679688 71.378906 41.304688 70.785156 42.828125 71.152344 C 44.140625 71.472656 45.367188 72.425781 46.277344 73.839844 C 46.4375 74.089844 46.597656 74.359375 46.746094 74.621094 C 47.316406 75.601562 47.90625 76.613281 48.945312 77.078125 C 50.082031 77.585938 51.5625 77.277344 52.722656 76.289062 C 54.117188 75.101562 54.257812 74.167969 54.46875 72.753906 C 54.488281 72.605469 54.511719 72.453125 54.539062 72.292969 C 54.648438 71.59375 55.03125 71.125 55.617188 70.96875 C 56.320312 70.78125 57.15625 71.109375 57.695312 71.78125 C 58.1875 72.394531 58.449219 73.1875 58.667969 73.945312 C 58.976562 75 59.253906 76.117188 58.996094 77.191406 C 58.992188 77.191406 58.992188 77.195312 58.992188 77.195312 C 58.953125 77.183594 58.910156 77.167969 58.867188 77.148438 C 58.582031 77.019531 58.3125 76.863281 58.0625 76.671875 C 57.632812 76.378906 57.191406 76.074219 56.65625 76.054688 C 56.222656 76.050781 55.863281 76.207031 55.566406 76.519531 C 55.238281 76.851562 55.085938 77.25 55.101562 77.714844 C 55.152344 78.535156 55.890625 79.269531 56.746094 79.347656 C 57.875 79.453125 58.824219 78.542969 59.183594 77.53125 C 60.335938 77.753906 61.519531 77.054688 62.296875 76.257812 C 62.667969 75.878906 62.910156 75.398438 63.144531 74.929688 C 63.621094 73.984375 64.03125 73.164062 65.363281 73.273438 C 66.453125 73.363281 67.511719 74.175781 68.1875 75.449219 L 68.191406 75.453125 C 68.589844 76.207031 68.847656 77.042969 69.097656 77.855469 C 69.21875 78.25 69.34375 78.664062 69.484375 79.0625 C 70.039062 80.617188 70.78125 81.644531 71.75 82.207031 C 72.304688 82.53125 72.902344 82.691406 73.542969 82.691406 C 74.183594 82.691406 74.78125 82.527344 75.332031 82.207031 C 75.886719 81.882812 76.320312 81.441406 76.636719 80.886719 C 76.953125 80.328125 77.109375 79.730469 77.101562 79.089844 C 77.09375 78.839844 77.074219 78.59375 77.042969 78.347656 C 76.996094 78.042969 76.980469 77.742188 76.988281 77.433594 C 77.027344 76.78125 77.351562 76.15625 77.902344 75.679688 C 78.488281 75.15625 79.175781 74.921875 79.957031 74.96875 C 81.355469 75.078125 82.613281 76.316406 82.816406 77.78125 C 83.015625 79.175781 82.308594 80.683594 81.0625 81.535156 C 80.703125 81.765625 80.328125 81.976562 79.9375 82.15625 C 79.21875 82.515625 78.472656 82.882812 77.988281 83.546875 C 77.003906 84.894531 77.5625 86.816406 78.671875 87.898438 C 79.800781 88.996094 81.367188 89.453125 82.890625 89.789062 C 83.085938 89.832031 83.28125 89.875 83.480469 89.914062 C 84.765625 90.1875 86.097656 90.46875 87.226562 91.136719 C 88.574219 91.9375 89.683594 93.347656 90.339844 95.109375 C 90.992188 96.851562 91.15625 98.75 91.226562 100.207031 L 91.503906 100.191406 C 91.433594 98.714844 91.265625 96.789062 90.601562 95.011719 C 89.917969 93.191406 88.769531 91.734375 87.367188 90.898438 C 86.199219 90.207031 84.847656 89.921875 83.539062 89.644531 C 83.339844 89.601562 83.144531 89.558594 82.949219 89.515625 C 81.464844 89.191406 79.945312 88.746094 78.867188 87.699219 C 77.863281 86.722656 77.328125 84.921875 78.210938 83.710938 C 78.65625 83.101562 79.339844 82.765625 80.058594 82.40625 C 80.460938 82.21875 80.847656 82.003906 81.21875 81.761719 C 82.550781 80.855469 83.304688 79.238281 83.09375 77.742188 C 83.035156 77.332031 82.90625 76.949219 82.710938 76.585938 Z M 55.535156 78.242188 C 55.394531 77.992188 55.347656 77.722656 55.390625 77.4375 C 55.433594 77.15625 55.558594 76.914062 55.765625 76.714844 C 56.003906 76.457031 56.296875 76.332031 56.644531 76.332031 C 57.101562 76.347656 57.492188 76.617188 57.902344 76.902344 C 58.171875 77.101562 58.460938 77.269531 58.765625 77.40625 C 58.8125 77.425781 58.863281 77.445312 58.910156 77.460938 C 58.585938 78.347656 57.738281 79.160156 56.773438 79.070312 C 56.214844 79.011719 55.804688 78.734375 55.535156 78.242188 Z M 55.535156 78.242188 " fill-opacity="1" fill-rule="nonzero"/></g></g></g><g clip-path="url(#f1d3a9d618)"><g clip-path="url(#dbcf357a14)"><g clip-path="url(#f24810120c)"><path fill="#dfd8be" d="M -46.335938 141.90625 C -47.605469 140.21875 -47.589844 137.609375 -46.238281 135.75 C -44.925781 133.957031 -42.5625 132.9375 -40.066406 133.089844 C -37.398438 133.257812 -35.171875 134.640625 -33.769531 135.773438 C -33.226562 136.214844 -32.683594 136.703125 -32.160156 137.179688 C -30.433594 138.742188 -28.648438 140.363281 -26.394531 140.496094 C -26.179688 140.511719 -25.96875 140.507812 -25.757812 140.496094 C -25.546875 140.480469 -25.335938 140.449219 -25.125 140.40625 C -24.917969 140.367188 -24.714844 140.308594 -24.511719 140.242188 C -24.3125 140.171875 -24.117188 140.089844 -23.925781 139.996094 C -23.738281 139.898438 -23.554688 139.792969 -23.378906 139.671875 C -23.199219 139.554688 -23.035156 139.425781 -22.875 139.285156 C -22.714844 139.144531 -22.566406 138.992188 -22.425781 138.832031 C -22.285156 138.671875 -22.15625 138.503906 -22.039062 138.328125 C -21.921875 138.148438 -21.816406 137.964844 -21.722656 137.773438 C -21.632812 137.585938 -21.550781 137.386719 -21.484375 137.1875 C -21.414062 136.984375 -21.359375 136.78125 -21.320312 136.570312 C -21.277344 136.363281 -21.25 136.152344 -21.238281 135.941406 C -21.226562 135.730469 -21.226562 135.515625 -21.238281 135.304688 C -21.253906 135.09375 -21.28125 134.882812 -21.324219 134.675781 C -21.367188 134.464844 -21.421875 134.261719 -21.488281 134.058594 C -21.558594 133.859375 -21.640625 133.664062 -21.734375 133.472656 C -22.03125 132.867188 -22.429688 132.289062 -22.816406 131.726562 C -23.402344 130.871094 -24.011719 129.988281 -24.308594 128.972656 C -24.652344 127.792969 -24.484375 127.097656 -24.019531 126.613281 C -24.683594 125.8125 -25.230469 124.769531 -24.992188 124.011719 C -24.765625 123.289062 -23.976562 122.945312 -23.335938 122.933594 C -22.652344 122.921875 -22 123.199219 -21.425781 123.441406 C -20.65625 123.765625 -20.285156 124.191406 -20.363281 124.671875 C -20.433594 125.128906 -20.875 125.375 -21.296875 125.558594 C -21.5625 125.671875 -21.820312 125.773438 -22.070312 125.875 C -22.710938 126.128906 -23.25 126.339844 -23.625 126.632812 C -23.382812 126.90625 -23.113281 127.148438 -22.8125 127.359375 C -21.390625 128.300781 -18.867188 128.316406 -17.488281 128.242188 C -17.132812 128.222656 -16.773438 128.1875 -16.429688 128.15625 C -15.765625 128.074219 -15.097656 128.042969 -14.429688 128.058594 C -13.570312 128.101562 -12.378906 128.335938 -11.574219 129.210938 C -10.421875 130.464844 -10.617188 132.398438 -10.914062 133.941406 C -11.691406 137.953125 -10.402344 140.332031 -6.867188 141.421875 C -6.113281 141.65625 -5.351562 141.667969 -4.589844 141.464844 C -3.824219 141.257812 -3.175781 140.863281 -2.636719 140.28125 C -2.101562 139.699219 -1.761719 139.019531 -1.621094 138.238281 C -1.476562 137.460938 -1.554688 136.707031 -1.847656 135.972656 C -2.078125 135.394531 -2.445312 134.859375 -2.800781 134.339844 C -3.332031 133.5625 -3.882812 132.761719 -3.996094 131.804688 C -4.089844 131.019531 -3.84375 130.210938 -3.300781 129.523438 C -2.691406 128.738281 -1.898438 128.285156 -0.917969 128.15625 C 0.742188 127.960938 2.519531 128.953125 3.402344 130.566406 C 4.117188 131.878906 4.046875 133.246094 3.976562 134.574219 C 3.914062 135.789062 3.847656 137.050781 4.40625 138.242188 C 4.636719 138.726562 4.957031 139.140625 5.363281 139.488281 C 5.769531 139.835938 6.230469 140.085938 6.742188 140.238281 C 7.535156 140.464844 8.597656 140.386719 9.191406 139.703125 C 9.488281 139.355469 9.632812 138.914062 9.78125 138.449219 C 9.878906 138.097656 10.015625 137.761719 10.183594 137.441406 C 10.8125 136.324219 12.296875 135.796875 13.492188 136.265625 L 13.386719 136.53125 C 12.320312 136.113281 10.996094 136.585938 10.429688 137.582031 C 10.273438 137.886719 10.148438 138.207031 10.054688 138.535156 C 9.902344 139.007812 9.746094 139.5 9.40625 139.890625 C 8.6875 140.722656 7.480469 140.746094 6.664062 140.511719 C 6.109375 140.347656 5.613281 140.082031 5.175781 139.707031 C 4.738281 139.332031 4.394531 138.886719 4.148438 138.363281 C 3.558594 137.105469 3.625 135.8125 3.691406 134.558594 C 3.761719 133.214844 3.828125 131.945312 3.148438 130.703125 C 2.320312 129.191406 0.664062 128.257812 -0.886719 128.4375 C -1.785156 128.5625 -2.515625 128.984375 -3.074219 129.699219 C -3.570312 130.328125 -3.796875 131.0625 -3.710938 131.773438 C -3.609375 132.65625 -3.101562 133.398438 -2.566406 134.179688 C -2.203125 134.710938 -1.824219 135.261719 -1.582031 135.863281 C -1.429688 136.25 -1.328125 136.648438 -1.289062 137.0625 C -1.246094 137.472656 -1.261719 137.882812 -1.339844 138.292969 C -1.414062 138.699219 -1.542969 139.089844 -1.726562 139.460938 C -1.914062 139.832031 -2.148438 140.167969 -2.429688 140.476562 C -2.707031 140.78125 -3.027344 141.039062 -3.382812 141.253906 C -3.734375 141.46875 -4.113281 141.632812 -4.515625 141.738281 C -4.914062 141.847656 -5.320312 141.898438 -5.738281 141.890625 C -6.152344 141.882812 -6.558594 141.816406 -6.953125 141.695312 C -10.605469 140.566406 -11.992188 138.015625 -11.195312 133.886719 C -10.910156 132.410156 -10.71875 130.558594 -11.785156 129.402344 C -12.359375 128.777344 -13.304688 128.402344 -14.445312 128.347656 C -15.097656 128.332031 -15.75 128.363281 -16.402344 128.441406 C -16.75 128.472656 -17.113281 128.507812 -17.472656 128.527344 C -18.886719 128.601562 -21.480469 128.582031 -22.972656 127.597656 C -23.289062 127.375 -23.578125 127.117188 -23.835938 126.828125 C -24.230469 127.253906 -24.335938 127.855469 -24.035156 128.894531 C -23.75 129.863281 -23.15625 130.730469 -22.582031 131.566406 C -22.191406 132.132812 -21.785156 132.722656 -21.476562 133.347656 C -21.378906 133.546875 -21.292969 133.753906 -21.21875 133.96875 C -21.144531 134.179688 -21.085938 134.398438 -21.042969 134.617188 C -21 134.839844 -20.96875 135.0625 -20.953125 135.285156 C -20.9375 135.511719 -20.9375 135.734375 -20.953125 135.960938 C -20.96875 136.183594 -20.996094 136.40625 -21.039062 136.625 C -21.082031 136.847656 -21.140625 137.066406 -21.210938 137.277344 C -21.285156 137.492188 -21.367188 137.699219 -21.46875 137.902344 C -21.566406 138.101562 -21.679688 138.296875 -21.800781 138.484375 C -21.925781 138.671875 -22.0625 138.851562 -22.210938 139.019531 C -22.359375 139.191406 -22.515625 139.351562 -22.683594 139.5 C -22.851562 139.648438 -23.03125 139.785156 -23.21875 139.910156 C -23.402344 140.035156 -23.597656 140.148438 -23.800781 140.25 C -24 140.351562 -24.207031 140.4375 -24.421875 140.511719 C -24.632812 140.585938 -24.847656 140.644531 -25.070312 140.6875 C -25.289062 140.734375 -25.511719 140.761719 -25.738281 140.78125 C -25.960938 140.796875 -26.1875 140.796875 -26.410156 140.78125 C -28.769531 140.640625 -30.589844 138.988281 -32.355469 137.390625 C -32.875 136.917969 -33.410156 136.429688 -33.949219 135.996094 C -35.316406 134.890625 -37.492188 133.535156 -40.082031 133.375 C -42.480469 133.226562 -44.75 134.203125 -46.003906 135.921875 C -47.378906 137.804688 -47.304688 140.503906 -45.828125 142.0625 L -46.039062 142.261719 C -46.144531 142.148438 -46.242188 142.03125 -46.335938 141.90625 Z M -20.757812 124.226562 C -20.929688 124 -21.25 123.824219 -21.539062 123.703125 C -22.085938 123.472656 -22.707031 123.210938 -23.332031 123.222656 C -23.871094 123.230469 -24.535156 123.507812 -24.722656 124.097656 C -24.925781 124.75 -24.417969 125.691406 -23.808594 126.421875 C -23.386719 126.085938 -22.808594 125.859375 -22.175781 125.609375 C -21.929688 125.507812 -21.671875 125.410156 -21.410156 125.296875 C -21.058594 125.144531 -20.691406 124.949219 -20.644531 124.628906 C -20.625 124.476562 -20.664062 124.34375 -20.757812 124.226562 Z M -20.757812 124.226562 " fill-opacity="1" fill-rule="nonzero"/></g></g></g><g clip-path="url(#f2df8908c1)"><g clip-path="url(#134ccb48fc)"><g clip-path="url(#d0f6177177)"><path fill="#dfd8be" d="M 51.09375 94.121094 C 49.914062 94.097656 48.738281 94.636719 48.109375 95.582031 C 47.640625 96.308594 47.503906 97.09375 47.691406 97.933594 C 47.855469 98.722656 48.285156 99.371094 48.898438 99.765625 C 49.175781 99.933594 49.464844 100.074219 49.765625 100.1875 C 49.988281 100.273438 50.203125 100.371094 50.414062 100.480469 C 50.933594 100.765625 51.347656 101.15625 51.65625 101.664062 C 51.960938 102.167969 52.121094 102.714844 52.132812 103.304688 C 52.144531 103.898438 52.003906 104.449219 51.71875 104.96875 C 51.429688 105.484375 51.03125 105.894531 50.523438 106.195312 C 49.617188 106.730469 48.421875 106.867188 46.859375 106.605469 C 46.449219 106.535156 46.03125 106.445312 45.628906 106.359375 C 44.789062 106.175781 43.917969 105.992188 43.039062 105.972656 L 43.035156 105.972656 C 41.496094 105.945312 40.183594 106.519531 39.519531 107.507812 C 38.675781 108.769531 39.292969 109.679688 39.890625 110.558594 C 40.171875 110.972656 40.460938 111.402344 40.601562 111.871094 C 40.894531 112.851562 40.933594 114.113281 40.265625 114.929688 L 40.261719 114.925781 C 39.398438 114.128906 38.199219 113.804688 37.140625 113.5625 C 36.34375 113.382812 35.496094 113.214844 34.667969 113.355469 C 33.710938 113.519531 32.929688 114.171875 32.722656 114.980469 C 32.546875 115.671875 32.8125 116.351562 33.453125 116.855469 C 33.582031 116.953125 33.703125 117.050781 33.824219 117.140625 C 34.941406 118.007812 35.621094 118.527344 35.957031 120.222656 C 36.167969 121.277344 36.019531 122.800781 34.914062 123.628906 C 34.070312 124.257812 32.949219 124.277344 31.859375 124.296875 C 31.554688 124.304688 31.238281 124.308594 30.933594 124.328125 C 29.183594 124.4375 27.6875 125.074219 26.722656 126.121094 C 25.578125 127.359375 25.289062 129.207031 26.042969 130.511719 C 26.28125 130.929688 26.613281 131.289062 26.9375 131.632812 C 27.367188 132.09375 27.773438 132.53125 27.96875 133.09375 C 28.335938 134.15625 27.78125 135.289062 27.066406 135.941406 C 26.207031 136.726562 25.050781 137.0625 24.136719 137.273438 C 22.339844 137.675781 20.527344 137.789062 18.695312 137.613281 C 16.863281 137.4375 15.105469 136.980469 13.417969 136.242188 L 13.304688 136.496094 C 15.019531 137.25 16.808594 137.710938 18.667969 137.890625 C 20.53125 138.070312 22.375 137.953125 24.199219 137.542969 C 25.144531 137.328125 26.347656 136.972656 27.253906 136.144531 C 28.035156 135.433594 28.640625 134.183594 28.230469 133 C 28.019531 132.386719 27.570312 131.90625 27.140625 131.445312 C 26.828125 131.109375 26.507812 130.765625 26.28125 130.375 C 25.589844 129.171875 25.859375 127.460938 26.925781 126.308594 C 27.84375 125.316406 29.273438 124.710938 30.949219 124.605469 C 31.25 124.585938 31.5625 124.582031 31.863281 124.574219 C 32.996094 124.554688 34.167969 124.53125 35.078125 123.851562 C 36.074219 123.109375 36.527344 121.660156 36.230469 120.167969 C 35.871094 118.371094 35.125 117.796875 33.992188 116.921875 C 33.875 116.832031 33.75 116.734375 33.625 116.636719 C 33.066406 116.199219 32.84375 115.636719 32.992188 115.050781 C 33.171875 114.34375 33.863281 113.773438 34.714844 113.628906 C 35.492188 113.496094 36.308594 113.660156 37.082031 113.835938 C 38.148438 114.078125 39.261719 114.378906 40.070312 115.128906 C 40.074219 115.128906 40.074219 115.132812 40.074219 115.132812 C 40.042969 115.164062 40.011719 115.191406 39.976562 115.21875 C 39.722656 115.40625 39.453125 115.566406 39.164062 115.691406 C 38.699219 115.921875 38.21875 116.160156 37.941406 116.621094 C 37.726562 116.996094 37.6875 117.386719 37.816406 117.796875 C 37.949219 118.242188 38.21875 118.574219 38.632812 118.785156 C 39.375 119.140625 40.375 118.855469 40.863281 118.144531 C 41.503906 117.207031 41.171875 115.9375 40.460938 115.132812 C 41.214844 114.230469 41.183594 112.855469 40.867188 111.792969 C 40.714844 111.28125 40.414062 110.835938 40.117188 110.402344 C 39.523438 109.527344 39.007812 108.769531 39.75 107.660156 C 40.359375 106.75 41.585938 106.222656 43.03125 106.25 C 43.886719 106.265625 44.742188 106.453125 45.570312 106.628906 C 45.976562 106.71875 46.398438 106.808594 46.816406 106.878906 C 48.441406 107.152344 49.703125 107.003906 50.667969 106.433594 C 51.21875 106.105469 51.648438 105.664062 51.960938 105.101562 C 52.273438 104.542969 52.421875 103.941406 52.410156 103.300781 C 52.398438 102.660156 52.222656 102.066406 51.890625 101.519531 C 51.558594 100.972656 51.109375 100.542969 50.546875 100.238281 C 50.328125 100.125 50.101562 100.019531 49.871094 99.929688 C 49.585938 99.824219 49.308594 99.691406 49.046875 99.53125 C 48.496094 99.179688 48.109375 98.59375 47.960938 97.878906 C 47.789062 97.113281 47.917969 96.398438 48.339844 95.738281 C 49.117188 94.570312 50.808594 94.074219 52.1875 94.609375 C 53.503906 95.117188 54.476562 96.46875 54.613281 97.96875 C 54.640625 98.398438 54.640625 98.828125 54.609375 99.257812 C 54.570312 100.058594 54.53125 100.890625 54.875 101.636719 C 55.570312 103.152344 57.523438 103.601562 59.007812 103.15625 C 60.515625 102.707031 61.679688 101.5625 62.710938 100.394531 C 62.84375 100.246094 62.976562 100.09375 63.109375 99.941406 C 63.972656 98.949219 64.867188 97.925781 66 97.265625 C 67.359375 96.476562 69.128906 96.195312 70.984375 96.476562 C 72.828125 96.757812 74.5625 97.539062 75.871094 98.1875 L 75.992188 97.9375 C 74.667969 97.28125 72.90625 96.488281 71.027344 96.203125 C 69.109375 95.910156 67.273438 96.203125 65.863281 97.023438 C 64.6875 97.707031 63.78125 98.75 62.902344 99.757812 C 62.769531 99.910156 62.636719 100.058594 62.503906 100.210938 C 61.496094 101.347656 60.367188 102.460938 58.925781 102.890625 C 57.585938 103.292969 55.753906 102.882812 55.128906 101.519531 C 54.8125 100.835938 54.847656 100.074219 54.886719 99.269531 C 54.917969 98.828125 54.917969 98.386719 54.890625 97.945312 C 54.742188 96.339844 53.699219 94.894531 52.289062 94.351562 C 51.902344 94.203125 51.503906 94.125 51.09375 94.121094 Z M 39.304688 118.664062 C 39.019531 118.664062 38.761719 118.574219 38.535156 118.398438 C 38.304688 118.222656 38.15625 117.996094 38.085938 117.714844 C 37.976562 117.386719 38.007812 117.066406 38.179688 116.761719 C 38.414062 116.371094 38.839844 116.164062 39.289062 115.941406 C 39.59375 115.804688 39.882812 115.636719 40.148438 115.433594 C 40.191406 115.402344 40.230469 115.367188 40.269531 115.332031 C 40.882812 116.050781 41.183594 117.183594 40.632812 117.988281 C 40.308594 118.445312 39.867188 118.667969 39.304688 118.664062 Z M 39.304688 118.664062 " fill-opacity="1" fill-rule="nonzero"/></g></g></g></svg>